<?xml version="1.0" standalone="no"?>
<!DOCTYPE svg PUBLIC "-//W3C//DTD SVG 20010904//EN"
 "http://www.w3.org/TR/2001/REC-SVG-20010904/DTD/svg10.dtd">
<svg version="1.0" xmlns="http://www.w3.org/2000/svg"
 width="1600.000000pt" height="1200.000000pt" viewBox="0 0 1600.000000 1200.000000"
 preserveAspectRatio="xMidYMid meet">

<g transform="translate(0.000000,1200.000000) scale(0.100000,-0.100000)"
fill="#000000" stroke="none">
<path d="M7855 10163 c-106 -9 -224 -26 -371 -54 -159 -30 -356 -92 -789 -247
-203 -72 -184 -69 -175 -29 14 66 55 132 123 200 86 87 87 101 8 95 -99 -7
-206 -68 -415 -235 -100 -80 -189 -154 -198 -165 -18 -20 -18 -20 -29 9 -18
47 -6 127 26 173 26 37 27 42 13 57 -15 14 -21 13 -67 -13 -73 -39 -198 -173
-244 -262 -21 -40 -62 -103 -90 -141 -68 -89 -247 -278 -247 -260 0 8 12 38
25 68 23 49 24 56 11 70 -14 13 -19 13 -50 -2 -53 -25 -180 -151 -226 -222
-34 -56 -135 -278 -155 -342 -3 -13 -13 -23 -20 -23 -8 0 -48 -48 -89 -107
-42 -60 -88 -122 -103 -139 -47 -53 -401 -244 -553 -298 -213 -77 -683 -171
-1028 -206 -148 -14 -452 -66 -557 -94 -49 -13 -157 -52 -239 -85 -240 -98
-336 -162 -488 -328 -99 -108 -247 -317 -290 -409 -13 -27 -31 -60 -40 -74
-27 -41 -86 -229 -102 -325 -40 -236 -45 -490 -16 -735 35 -294 76 -446 160
-590 57 -98 93 -138 111 -123 19 16 35 78 53 203 16 111 73 328 107 408 11 26
41 84 66 129 48 85 100 133 144 133 11 0 166 -43 345 -95 846 -247 1255 -321
1957 -355 142 -7 212 -14 221 -22 7 -7 63 -49 125 -93 61 -44 189 -142 284
-219 94 -76 199 -159 232 -184 33 -25 117 -96 186 -158 102 -92 134 -127 172
-191 90 -154 125 -240 144 -358 58 -360 -15 -594 -334 -1064 -232 -341 -308
-466 -340 -559 -17 -52 -39 -102 -47 -111 -23 -25 -20 -38 13 -54 30 -15 51
-7 51 18 0 17 49 60 114 99 94 56 302 119 521 157 140 24 143 24 121 0 -26
-29 -56 -215 -56 -350 0 -268 26 -423 171 -1049 20 -85 30 -147 26 -172 -6
-48 16 -88 40 -69 28 24 45 71 52 149 8 74 12 85 67 167 113 171 256 282 479
371 55 22 134 56 175 75 41 20 78 33 82 31 5 -3 8 -16 8 -29 0 -34 128 -407
188 -545 45 -106 75 -197 123 -375 13 -48 17 -86 13 -121 -6 -54 8 -79 43 -72
23 4 36 33 68 148 44 160 164 518 220 655 29 72 69 181 90 242 l37 113 67 -55
c114 -92 294 -302 409 -477 35 -54 106 -187 158 -295 52 -109 114 -236 139
-283 24 -47 59 -122 78 -166 19 -45 49 -101 68 -124 38 -47 86 -77 101 -62 5
5 10 63 12 128 3 121 49 379 141 779 19 83 55 247 80 365 25 118 54 247 65
285 10 39 24 90 30 115 l12 45 25 -48 c38 -75 229 -634 248 -725 4 -18 18 -61
32 -94 13 -34 28 -80 32 -102 5 -31 12 -42 27 -44 25 -4 30 7 44 93 16 102
225 660 277 740 66 103 138 195 151 195 7 0 26 9 40 21 l27 21 17 -107 c23
-137 72 -283 144 -426 31 -63 79 -165 106 -228 27 -63 65 -141 84 -173 70
-115 331 -354 567 -518 81 -56 150 -106 153 -111 8 -14 40 -11 53 5 15 18 -6
110 -61 258 -39 108 -41 120 -46 251 -5 157 1 209 64 532 54 281 50 268 134
445 38 80 82 185 98 234 24 75 33 90 52 93 13 2 51 29 85 61 179 168 383 315
454 327 41 7 281 -10 364 -26 44 -8 111 -28 397 -116 151 -47 174 -59 246
-134 157 -165 204 -292 209 -554 2 -125 5 -151 18 -159 28 -18 43 9 101 179
170 492 210 713 210 1175 1 263 -10 394 -55 648 -32 184 -148 509 -254 710
-35 66 -40 80 -23 71 36 -20 154 -143 171 -181 19 -41 34 -50 60 -36 34 18 15
156 -43 315 -48 129 -140 280 -302 497 -102 135 -159 201 -366 423 l-143 153
65 0 c80 0 202 -23 258 -48 24 -11 65 -36 93 -56 54 -39 76 -44 95 -21 33 40
-30 194 -129 318 -195 243 -428 406 -920 645 -218 105 -284 145 -416 251 -96
78 -138 123 -147 157 -7 26 14 31 172 40 87 5 120 3 192 -15 117 -28 303 -102
411 -163 75 -43 92 -49 111 -40 44 20 42 96 -3 136 -11 11 -21 29 -21 41 0 28
-45 69 -170 157 -139 96 -588 363 -705 417 -55 26 -143 74 -194 106 -52 32
-110 66 -129 75 l-35 17 44 21 c87 42 157 54 344 59 99 3 186 10 193 15 22 19
14 65 -15 86 -61 43 -225 117 -348 157 -159 52 -294 80 -485 100 -80 8 -179
19 -220 25 -41 5 -132 14 -203 20 -148 13 -178 22 -300 92 -110 64 -166 111
-146 124 28 17 402 17 521 0 131 -19 309 -64 403 -101 53 -21 69 -24 80 -15 8
7 15 17 15 22 0 15 -139 156 -185 188 -116 80 -356 206 -524 275 -245 100
-671 209 -996 255 -44 6 -128 21 -187 32 l-106 22 65 73 c98 109 221 176 388
212 73 16 80 20 80 42 0 29 -24 41 -132 70 -61 17 -109 22 -218 22 -167 1
-267 -17 -428 -74 -124 -45 -389 -120 -397 -113 -10 10 46 98 81 128 21 17 61
40 91 51 37 15 54 27 56 41 5 32 -23 47 -87 47 -101 -1 -225 -39 -376 -113
-148 -73 -241 -103 -303 -98 -36 3 -37 4 -35 41 4 55 39 111 103 164 70 57
116 81 210 108 55 15 76 26 78 39 2 10 -2 22 -10 27 -12 8 -109 9 -193 2z
m-1717 -1580 c223 -105 228 -496 8 -611 -134 -69 -290 -3 -365 158 -23 48 -26
68 -26 155 0 87 3 107 26 155 34 72 72 116 123 142 82 43 145 43 234 1z"/>
<path d="M5949 8477 c-62 -33 -100 -97 -106 -179 -13 -172 149 -277 270 -177
83 69 107 187 56 284 -45 89 -133 118 -220 72z"/>
</g>
</svg>
