<?xml version="1.0" standalone="no"?>
<!DOCTYPE svg PUBLIC "-//W3C//DTD SVG 20010904//EN"
 "http://www.w3.org/TR/2001/REC-SVG-20010904/DTD/svg10.dtd">
<svg version="1.0" xmlns="http://www.w3.org/2000/svg"
 width="4464.000000pt" height="2265.000000pt" viewBox="0 0 4464.000000 2265.000000"
 preserveAspectRatio="xMidYMid meet">

<g transform="translate(0.000000,2265.000000) scale(0.100000,-0.100000)"
fill="#000000" stroke="none">
<path d="M0 11325 l0 -11325 22320 0 22320 0 0 11325 0 11325 -22320 0 -22320
0 0 -11325z m40432 10308 c-64 -63 -198 -280 -348 -563 -45 -85 -141 -255
-212 -378 -72 -123 -142 -252 -157 -286 l-27 -63 -96 -21 c-89 -18 -98 -19
-109 -4 -10 12 -30 15 -93 13 -44 -1 -80 1 -80 5 0 4 7 15 15 24 8 9 45 72 83
141 232 421 258 460 480 711 108 123 261 270 328 315 42 29 265 163 271 163 2
0 -23 -26 -55 -57z m-19552 -1173 c175 -15 465 -57 665 -95 99 -19 227 -39
285 -45 58 -6 164 -17 235 -25 72 -9 333 -33 580 -55 248 -22 468 -44 490 -50
22 -5 114 -21 205 -35 171 -27 217 -36 435 -85 72 -17 216 -46 320 -65 105
-19 262 -49 350 -66 88 -16 194 -34 235 -39 109 -14 442 -100 770 -200 52 -16
201 -61 330 -101 334 -102 510 -164 624 -221 55 -27 106 -51 115 -53 9 -2 57
-22 106 -43 50 -22 131 -54 180 -71 50 -17 99 -35 110 -40 11 -5 45 -19 75
-31 30 -12 86 -40 123 -62 86 -50 242 -123 380 -178 58 -23 141 -60 184 -82
43 -22 114 -55 158 -73 44 -19 145 -70 225 -114 80 -45 149 -81 153 -81 4 0
88 -34 185 -76 358 -154 609 -250 1012 -384 415 -138 617 -200 689 -210 71
-10 259 -49 381 -80 73 -19 206 -36 660 -85 259 -27 541 -28 672 0 40 8 105
22 143 30 39 9 126 24 195 35 110 18 227 46 434 104 197 55 388 151 715 360
57 36 108 66 113 66 4 0 16 7 25 15 10 8 41 31 69 52 92 67 208 159 247 196
21 19 118 92 215 163 97 70 191 141 207 157 26 25 123 91 310 212 90 58 179
111 262 155 45 24 80 47 78 51 -10 14 449 267 632 349 65 28 152 68 193 87
149 70 249 106 470 168 417 119 654 163 1005 189 353 27 458 42 524 75 52 27
178 30 531 14 311 -15 332 -17 547 -53 192 -33 327 -65 613 -147 202 -58 319
-111 515 -233 308 -192 802 -657 922 -869 15 -25 54 -93 88 -151 200 -338 413
-915 480 -1300 38 -220 37 -311 -8 -537 -55 -281 -114 -408 -418 -902 -86
-141 -205 -299 -216 -288 -2 3 25 63 60 133 122 245 165 378 193 602 8 64 14
152 14 197 0 132 -38 388 -75 505 -18 58 -48 152 -65 210 -57 188 -243 590
-283 611 -24 13 -37 -1 141 147 135 112 146 128 162 233 7 48 10 108 8 134
-11 97 -92 128 -181 69 -69 -46 -224 -172 -297 -240 l-68 -65 -21 34 c-34 56
-220 217 -364 315 l-48 33 24 32 c110 146 157 245 165 348 4 56 1 75 -21 122
-23 51 -29 56 -81 76 -84 31 -113 28 -155 -16 -39 -41 -37 -39 -164 -205 l-88
-116 -57 24 c-31 13 -65 24 -74 24 -27 0 -28 14 -2 39 33 32 44 80 44 197 0
121 -7 165 -29 171 -14 3 -16 17 -13 76 4 95 -15 135 -78 159 -25 9 -76 29
-115 43 -82 32 -130 30 -221 -8 -51 -21 -65 -34 -107 -93 -44 -62 -141 -249
-195 -375 l-20 -46 -281 5 c-430 8 -811 -26 -1019 -90 -35 -11 -123 -46 -195
-79 -73 -33 -175 -74 -227 -91 -144 -47 -283 -109 -457 -204 -307 -169 -339
-187 -403 -231 -173 -118 -304 -213 -366 -266 -38 -32 -170 -126 -294 -210
-180 -121 -247 -173 -336 -259 -61 -59 -113 -108 -115 -108 -2 0 -56 -50 -118
-110 -63 -61 -190 -177 -283 -258 -93 -81 -208 -182 -256 -224 -48 -43 -118
-103 -157 -135 -38 -32 -97 -80 -130 -108 -33 -28 -86 -67 -118 -86 -32 -18
-106 -71 -163 -116 -73 -57 -157 -109 -272 -169 -517 -270 -592 -302 -994
-429 -150 -48 -318 -103 -373 -122 -55 -19 -134 -43 -175 -53 -41 -10 -120
-30 -175 -44 -163 -42 -493 -85 -830 -107 -252 -17 -370 -20 -630 -15 -547 9
-1068 36 -1162 60 -32 8 -112 20 -178 26 -66 6 -145 16 -175 22 -30 7 -77 12
-105 13 -27 1 -75 8 -105 17 -83 24 -349 86 -511 119 -215 43 -904 142 -1109
159 -246 20 -600 33 -902 34 -290 1 -308 2 -321 20 -10 14 -20 17 -33 11 -10
-4 -37 -7 -59 -6 -68 3 -433 -38 -575 -65 -214 -40 -604 -132 -695 -165 -46
-16 -121 -45 -166 -64 -46 -19 -88 -35 -94 -35 -32 0 -394 -156 -472 -203 -32
-19 -69 -38 -83 -42 -14 -4 -33 -14 -42 -23 -20 -17 -25 0 -5 20 7 7 18 24 25
38 6 14 16 32 22 40 12 20 216 366 267 455 193 335 297 569 380 858 5 16 7 16
17 -5 7 -14 21 -23 34 -22 15 0 19 -3 12 -11 -5 -6 -14 -60 -20 -120 -14 -140
-45 -358 -64 -455 -9 -41 -18 -88 -20 -105 -2 -16 -5 -30 -5 -30 -3 0 -52
-141 -53 -152 -1 -7 -5 -13 -10 -13 -4 0 -8 -7 -8 -15 0 -8 -5 -15 -11 -15 -5
0 -8 -4 -5 -8 3 -5 -10 -23 -29 -40 -49 -43 -48 -94 2 -121 17 -8 28 -8 47 1
14 6 26 15 26 19 0 4 11 20 25 35 14 15 25 33 25 40 0 8 4 14 8 14 13 0 33 50
26 62 -4 6 -2 8 4 4 10 -6 28 30 24 47 -1 4 2 7 6 7 10 0 30 60 36 111 3 18 9
45 14 59 5 14 15 63 22 110 15 94 30 127 30 63 0 -24 6 -46 15 -53 8 -7 13
-15 11 -19 -3 -4 0 -13 6 -21 8 -12 9 -11 4 4 -5 15 -2 17 16 13 56 -14 66 23
72 278 4 121 9 264 12 318 5 70 2 127 -11 203 -14 86 -16 142 -11 294 3 103 9
213 12 244 8 64 -10 96 -53 96 -23 0 -24 2 -18 40 8 47 -2 100 -19 100 -7 0
-16 -28 -23 -67 -36 -220 -78 -434 -108 -553 -53 -208 -140 -510 -170 -586
-39 -100 -154 -336 -231 -477 -80 -144 -338 -579 -369 -622 -13 -16 -26 -41
-30 -54 -4 -14 -43 -88 -85 -165 -105 -190 -155 -294 -147 -302 12 -12 56 37
89 97 l31 57 62 -63 c70 -71 104 -126 186 -300 83 -175 127 -327 114 -393 -2
-12 0 -24 6 -27 5 -4 9 -20 9 -37 0 -23 -3 -28 -12 -20 -7 5 -29 9 -48 8 -43
-1 -60 -30 -60 -101 0 -55 20 -95 48 -95 10 0 5 -7 -14 -16 -30 -14 -30 -16
-43 -129 -12 -114 -7 -155 20 -155 6 0 8 -4 4 -9 -3 -6 7 -6 26 -1 18 5 36 7
42 3 6 -3 7 -1 4 4 -4 6 0 14 8 17 18 7 18 4 -31 -175 -19 -69 -47 -155 -63
-191 -30 -65 -51 -165 -111 -523 -17 -99 -45 -244 -64 -321 -19 -78 -50 -233
-70 -345 -103 -572 -175 -879 -209 -879 -6 0 -28 -12 -49 -27 -32 -21 -52 -27
-116 -30 -104 -5 -113 -8 -157 -43 -46 -36 -74 -38 -104 -6 l-23 25 20 33 c12
18 32 44 46 57 14 14 26 31 26 38 0 18 -87 111 -110 118 -18 6 -17 9 6 58 20
44 24 67 24 150 0 105 -16 190 -34 184 -8 -3 -10 -45 -7 -139 4 -148 5 -144
-73 -273 -20 -33 -42 -77 -48 -97 -10 -33 -16 -38 -47 -43 -20 -3 -49 -8 -64
-10 -41 -7 -111 -59 -149 -111 -47 -66 -125 -101 -167 -75 -10 7 -5 21 27 67
22 33 50 67 61 77 13 10 19 23 15 29 -4 7 -9 24 -10 38 -2 15 -24 45 -56 76
l-53 50 53 90 c120 204 132 240 132 397 0 88 -3 107 -15 107 -11 0 -15 -12
-15 -47 0 -109 -19 -216 -50 -277 -59 -121 -127 -230 -200 -323 -41 -51 -91
-120 -111 -153 -25 -41 -39 -55 -43 -45 -9 24 -92 19 -152 -9 -29 -13 -69 -39
-90 -58 -22 -19 -50 -42 -64 -51 -30 -21 -99 -22 -125 -3 -18 13 -15 18 54 95
40 44 94 96 121 116 l48 35 -2 112 c-1 96 -4 120 -24 158 l-22 45 107 100 c72
68 125 128 163 186 72 110 101 210 55 193 -8 -4 -13 -10 -10 -14 8 -13 -15
-58 -76 -150 -55 -83 -171 -199 -444 -447 -49 -44 -110 -106 -135 -136 -41
-49 -51 -55 -104 -66 -32 -7 -84 -26 -114 -42 -63 -33 -140 -40 -166 -13 -9 8
-16 19 -16 23 0 19 86 104 135 133 54 32 54 33 49 73 -16 113 -16 156 0 180 9
13 16 36 16 50 0 21 4 25 19 20 30 -9 217 33 275 62 195 98 362 233 467 376
15 21 40 75 55 120 15 45 37 106 50 135 36 83 74 321 74 465 0 248 -28 562
-66 751 -13 65 -24 132 -24 148 0 15 -4 36 -9 46 -6 9 -17 60 -25 113 -25 156
-50 219 -152 372 -51 77 -105 164 -121 195 -15 31 -33 62 -40 69 -14 16 -75
172 -71 183 2 5 32 -14 68 -41 36 -27 110 -72 165 -99 86 -43 113 -51 198 -61
85 -11 108 -10 179 5 149 32 218 66 204 101 -5 14 -12 13 -48 -9 -43 -24 -92
-40 -158 -51 -19 -3 -46 -8 -60 -10 -14 -3 -70 1 -125 8 -111 16 -216 61 -331
143 -72 51 -147 135 -139 157 4 8 -13 36 -39 67 -64 75 -113 162 -189 331 -64
141 -117 300 -117 346 0 13 -4 23 -9 23 -4 0 -11 33 -14 73 -4 39 -15 115 -26
167 -197 937 -186 866 -186 1205 1 290 3 310 80 691 28 135 30 160 14 170 -19
12 -28 -10 -54 -136 -15 -69 -29 -132 -32 -140 -4 -8 -5 -19 -4 -24 1 -5 -1
-16 -5 -25 -4 -9 -6 -26 -5 -38 1 -13 -3 -23 -9 -23 -7 0 -10 -7 -6 -15 6 -17
-9 -21 -19 -5 -4 7 -13 6 -27 -1 -16 -8 -23 -8 -30 2 -8 11 -9 11 -5 -1 2 -8
-4 -35 -15 -58 -10 -24 -16 -47 -14 -51 2 -3 0 -28 -5 -54 -5 -27 -9 -90 -10
-140 -1 -68 -6 -100 -20 -126 -10 -20 -19 -40 -19 -46 0 -6 -13 -42 -29 -80
-29 -67 -31 -70 -65 -71 -24 -1 -36 3 -36 12 0 22 -35 35 -64 24 -23 -9 -31
-20 -27 -42 0 -5 -3 -8 -8 -8 -11 0 -109 -218 -149 -332 -68 -192 -102 -470
-66 -539 8 -17 13 -33 10 -36 -2 -3 -62 6 -133 21 -232 46 -410 45 -658 -5
-91 -18 -153 -41 -435 -158 -41 -17 -120 -48 -175 -70 -55 -21 -129 -51 -165
-66 -247 -104 -687 -190 -1060 -206 -339 -15 -697 -14 -715 1 -21 18 -19 33 4
27 25 -6 60 18 72 51 11 29 -8 182 -23 182 -5 0 -6 5 -3 11 11 16 -4 61 -17
53 -8 -5 -9 -2 -5 10 4 9 3 15 -2 11 -5 -3 -12 1 -14 7 -4 10 -8 9 -16 -2 -6
-8 -11 -13 -12 -10 0 3 -2 13 -4 23 -2 9 2 23 8 30 7 6 12 18 13 25 2 28 4 33
13 28 4 -3 6 6 3 19 -2 15 0 25 7 25 7 0 9 5 6 10 -3 6 -1 10 5 10 6 0 9 4 6
9 -3 4 7 41 23 81 16 43 31 68 35 61 4 -6 12 -8 18 -5 7 4 5 10 -5 15 -9 5
-13 17 -10 29 3 11 10 17 16 13 5 -3 7 -1 4 4 -6 9 8 64 30 123 3 8 8 24 10
34 2 10 11 25 21 33 9 8 11 12 4 8 -14 -7 -12 8 14 99 17 61 18 86 2 86 -8 0
-43 -86 -84 -208 -99 -289 -180 -496 -187 -478 -3 8 -9 60 -13 115 -7 109 -14
127 -39 117 -14 -5 -16 -16 -10 -84 3 -42 11 -101 16 -131 5 -30 9 -98 9 -150
0 -60 7 -126 20 -177 54 -228 197 -656 304 -914 66 -159 71 -191 59 -374 l-11
-161 -90 -265 c-49 -146 -109 -312 -132 -370 -24 -58 -60 -175 -81 -260 -40
-158 -48 -222 -74 -575 -21 -284 -61 -621 -106 -885 -30 -174 -127 -439 -174
-477 -53 -42 -113 -62 -190 -62 -91 -1 -108 9 -67 39 17 13 33 29 36 36 8 21
-35 93 -69 114 -17 10 -41 30 -54 44 l-24 25 37 55 c45 68 60 104 76 180 10
51 10 60 -4 75 -15 14 -18 14 -26 1 -5 -8 -10 -25 -10 -36 0 -60 -42 -152
-111 -244 -103 -139 -112 -159 -117 -267 l-4 -92 -27 12 c-14 6 -45 24 -69 39
-65 42 -110 36 -197 -26 -19 -14 -29 -16 -37 -8 -9 9 -3 29 24 81 21 42 32 73
26 79 -5 5 -10 24 -12 43 -2 19 -15 60 -29 92 -15 32 -27 71 -27 88 0 23 -5
32 -20 36 -31 8 -20 25 38 56 64 35 93 73 121 156 25 77 26 91 6 91 -9 0 -31
-33 -55 -85 -37 -80 -42 -87 -87 -107 -52 -22 -151 -103 -183 -148 -25 -35
-70 -201 -78 -289 l-7 -66 -40 3 c-22 2 -74 9 -115 17 -88 16 -113 15 -137 -8
-10 -9 -39 -25 -63 -36 l-45 -20 -3 35 c-2 20 1 49 7 66 8 23 7 38 -4 62 -8
17 -14 43 -13 56 1 28 -34 102 -65 137 -11 13 -17 26 -13 30 4 4 40 10 80 14
104 8 191 51 272 134 64 65 104 128 104 164 0 39 -18 30 -48 -22 -73 -129
-227 -237 -339 -237 -28 0 -64 -5 -79 -10 -40 -16 -204 -187 -226 -238 -11
-24 -25 -72 -31 -108 l-12 -64 -64 30 c-88 42 -157 42 -204 0 -19 -16 -37 -30
-41 -30 -16 0 -3 39 22 70 24 29 30 48 35 107 l6 72 -41 36 c-22 20 -38 37
-36 38 1 1 19 10 38 21 19 10 62 28 95 41 74 27 219 100 260 129 16 11 48 32
72 46 138 81 447 446 492 579 6 19 17 42 25 50 18 22 69 150 100 251 36 121
62 236 97 439 l31 176 -6 273 c-5 222 -10 290 -27 359 -11 48 -18 91 -16 96 5
16 92 -132 116 -197 39 -105 100 -368 112 -484 11 -106 9 -176 -7 -264 -5 -30
-4 -38 9 -38 40 0 54 138 33 317 -17 147 -82 429 -119 519 -26 65 -199 328
-363 554 -157 216 -179 251 -326 542 -101 199 -133 269 -124 278 8 8 7 13 -4
20 -8 5 -23 15 -32 22 -23 17 -213 466 -272 642 -61 180 -79 313 -80 591 -1
185 2 229 27 375 15 91 34 198 43 238 9 40 13 81 9 89 -19 51 -61 -90 -100
-336 -35 -224 -41 -373 -21 -571 22 -218 31 -263 76 -402 36 -107 197 -503
241 -590 l19 -36 -65 -4 c-37 -2 -60 1 -55 6 11 11 -6 56 -31 79 -10 10 -19
26 -19 37 0 10 -5 31 -12 47 -6 15 -12 33 -12 40 -2 21 -41 50 -74 55 -17 2
-29 1 -27 -3 3 -4 -2 -10 -11 -13 -10 -4 -13 -2 -8 6 4 6 3 8 -4 4 -19 -12
-23 -81 -8 -166 8 -47 14 -86 13 -86 -4 -4 -183 27 -212 36 -56 17 -230 49
-300 56 -112 10 -262 64 -595 215 -373 168 -859 342 -1395 499 -293 85 -388
102 -770 134 -451 38 -717 49 -863 37 -190 -17 -254 -32 -449 -110 -29 -11
-53 -19 -53 -16 0 6 306 187 425 252 111 60 118 80 35 105 -56 16 -202 54
-253 65 -15 3 -26 10 -25 15 2 6 109 71 238 145 278 159 310 179 310 197 0 9
8 12 24 9 16 -3 30 3 44 17 19 21 20 24 6 46 -11 16 -32 26 -72 34 -31 7 -73
15 -92 19 l-35 8 28 13 c15 7 27 17 27 22 0 5 4 7 9 4 5 -4 11 -3 13 1 1 5 26
20 53 35 28 15 49 32 47 38 -1 7 2 9 7 5 13 -7 191 113 191 130 0 7 -7 29 -15
49 l-15 36 -98 0 c-123 0 -186 17 -281 76 -138 86 -289 173 -396 228 -121 62
-433 112 -615 100 -141 -9 -325 -78 -384 -143 -35 -38 -7 -35 86 12 161 79
212 90 406 84 210 -6 381 -39 487 -94 110 -57 273 -152 355 -207 89 -60 166
-93 238 -102 l53 -6 -233 -117 c-335 -169 -367 -190 -316 -210 86 -33 276 -82
340 -87 l78 -7 -116 -69 c-63 -38 -172 -101 -242 -140 -156 -87 -214 -126
-209 -141 2 -6 21 -15 43 -19 21 -5 55 -17 75 -28 20 -11 74 -27 120 -36 46
-8 87 -19 91 -22 4 -4 -67 -50 -158 -102 -190 -108 -332 -198 -355 -226 -23
-27 -33 -74 -16 -74 7 0 34 -19 59 -42 28 -26 78 -56 127 -77 l81 -34 -132
-70 c-73 -39 -187 -96 -254 -128 -127 -62 -174 -92 -174 -114 0 -24 69 -74
123 -88 28 -8 83 -19 120 -25 37 -6 80 -18 95 -28 l26 -17 -79 -27 c-44 -15
-138 -44 -210 -65 -253 -73 -480 -147 -494 -160 -7 -7 -11 -18 -7 -23 9 -16
99 -32 174 -32 l67 0 -80 -44 c-44 -23 -189 -102 -322 -175 -134 -72 -268
-141 -298 -152 -30 -11 -56 -26 -57 -32 -2 -23 -5 -32 -13 -51 -6 -15 -2 -24
19 -41 39 -31 96 -46 201 -54 l90 -7 -50 -32 c-171 -112 -525 -251 -820 -322
-101 -25 -307 -48 -490 -56 -144 -6 -213 3 -282 39 l-28 15 47 7 c25 4 59 15
74 25 56 36 215 166 336 275 68 61 154 135 192 165 122 98 300 267 349 332
326 431 369 494 443 643 41 83 92 184 114 225 25 46 51 119 69 190 26 104 31
142 41 380 14 334 30 473 59 509 12 14 29 37 38 51 9 14 37 39 62 55 25 17 45
34 43 39 -3 12 -289 8 -372 -5 -183 -28 -344 -81 -524 -171 -89 -44 -181 -95
-206 -112 -55 -40 -166 -145 -375 -356 -180 -183 -342 -322 -466 -403 -106
-69 -408 -220 -482 -242 -75 -22 -173 -34 -347 -45 -262 -16 -658 -81 -950
-156 -187 -48 -319 -74 -386 -74 -33 0 -57 10 -115 48 -90 59 -109 80 -195
224 -81 134 -162 312 -176 388 -5 30 -13 60 -18 65 -28 37 -70 339 -70 515 0
201 31 354 126 613 92 256 199 439 426 735 102 133 373 421 385 409 2 -3 -25
-63 -60 -133 -120 -240 -173 -396 -277 -814 -89 -358 -82 -423 62 -590 7 -8
31 -37 53 -63 77 -93 158 -120 293 -97 110 18 220 76 310 163 81 79 161 173
237 282 27 39 77 105 111 147 l62 77 4 -98 c3 -92 7 -105 45 -183 l42 -84 53
1 c38 0 62 7 83 22 75 54 96 104 45 109 -26 3 -111 -20 -144 -37 -13 -7 -16
-7 -11 0 3 6 -1 14 -9 17 -27 11 -49 99 -44 183 4 63 10 88 39 140 32 60 37
64 72 67 55 4 152 60 202 116 26 30 70 102 109 181 77 158 135 248 249 384 88
107 153 170 222 216 l40 27 6 -112 c4 -95 10 -124 35 -183 20 -46 35 -70 46
-70 42 0 38 -8 -95 -175 -37 -46 -75 -106 -85 -132 -9 -27 -19 -48 -23 -48
-12 0 -30 54 -36 110 -4 44 -2 63 10 80 20 29 11 50 -20 50 -17 0 -43 -18 -82
-58 -90 -92 -172 -279 -187 -428 -6 -60 10 -169 26 -179 11 -7 110 34 125 51
11 13 83 51 168 90 41 18 70 41 102 81 25 30 45 63 45 74 0 12 7 19 20 19 35
0 133 45 217 99 73 47 135 103 205 189 17 20 36 32 51 32 37 0 264 168 300
223 9 15 30 27 49 31 30 5 205 126 278 190 29 26 73 46 101 46 39 0 237 116
335 196 22 19 58 41 80 50 47 19 297 207 328 246 17 23 33 29 91 37 106 16
186 42 350 116 140 63 157 69 248 76 55 5 103 11 108 14 4 3 82 10 171 15 170
9 241 24 274 61 11 13 30 19 57 19 90 0 389 61 461 93 l51 23 34 -19 c48 -29
283 -41 491 -26 199 14 149 13 635 5 296 -5 453 -4 530 4 61 6 184 16 275 21
91 5 172 9 180 10 8 0 116 -3 240 -8 124 -6 231 -8 238 -5 6 2 12 10 12 18 0
11 19 14 83 15 73 0 287 19 407 34 219 29 344 48 450 69 132 25 282 77 347
120 97 64 393 133 608 143 170 7 302 -6 530 -53 188 -38 280 -66 432 -130 102
-44 138 -52 145 -35 2 5 42 5 98 0 94 -10 188 -8 555 12 225 12 265 15 285 22
34 12 212 39 315 47 127 10 280 32 345 50 117 31 423 127 465 146 17 8 113 31
215 53 102 22 244 56 315 76 473 133 866 234 948 245 39 6 176 13 302 16 127
4 237 10 245 15 21 12 261 11 400 -1z m20168 -151 c-29 -34 -72 -85 -95 -113
-23 -28 -125 -130 -227 -226 -123 -117 -187 -184 -192 -203 -5 -19 -11 -26
-23 -23 -9 3 -47 12 -86 21 -38 9 -77 19 -85 22 -22 9 75 31 138 32 93 2 79
53 -23 85 l-56 17 133 81 c73 44 188 119 255 167 111 78 301 201 311 201 2 0
-20 -28 -50 -61z m-1778 -776 c61 -22 88 -36 97 -53 9 -19 9 -26 -2 -34 -7 -6
-22 -40 -34 -76 -16 -51 -41 -91 -111 -178 -129 -163 -165 -216 -285 -422 -83
-144 -235 -450 -235 -474 0 -3 -24 -62 -54 -133 -107 -252 -158 -479 -160
-710 0 -83 -2 -150 -3 -149 -20 20 -123 590 -123 682 0 63 64 305 124 470 126
348 330 820 422 975 43 74 47 77 117 108 87 38 125 37 247 -6z m2464 -171
c-99 -66 -227 -188 -409 -390 -55 -60 -103 -111 -106 -111 -3 -1 -30 20 -59
45 -30 25 -79 60 -110 78 -54 31 -55 31 -24 34 17 2 60 -4 95 -12 99 -23 116
5 49 77 l-39 43 157 77 c130 64 439 185 477 186 6 1 -8 -11 -31 -27z m-33199
-69 c-5 -10 -23 -58 -42 -108 -19 -49 -37 -99 -42 -109 -7 -17 -10 -16 -32 15
-20 28 -24 46 -24 101 0 77 7 88 68 105 64 17 81 16 72 -4z m-267 -82 c-42
-49 -147 -218 -209 -336 l-48 -89 -12 29 c-21 48 -16 134 9 186 26 53 27 65 7
72 -18 8 -110 -70 -163 -138 -69 -89 -176 -248 -213 -319 -34 -64 -37 -68 -48
-47 -25 45 -25 114 -1 170 25 57 19 78 -19 66 -26 -8 -149 -153 -220 -259 -56
-82 -73 -120 -96 -216 -24 -98 -24 -99 -42 -67 -18 35 -10 96 18 131 23 29 24
52 5 59 -15 6 -77 -34 -110 -71 l-18 -21 -39 32 c-21 18 -39 37 -39 43 0 6 39
42 86 80 48 38 90 79 95 90 11 29 128 130 237 203 49 32 120 83 158 112 96 72
623 328 677 329 15 0 13 -7 -15 -39z m31716 -72 c6 -5 3 -16 -7 -27 -20 -22
-21 -36 -5 -62 18 -29 -3 -98 -61 -194 -26 -45 -70 -119 -97 -166 -26 -46 -86
-136 -133 -200 -217 -297 -304 -452 -356 -629 l-22 -75 -17 108 c-32 210 -32
216 2 288 17 34 54 124 82 198 59 155 160 369 215 456 64 101 228 305 263 329
l34 23 46 -20 c26 -11 51 -24 56 -29z m-614 -154 c-7 -8 -9 -22 -6 -31 5 -13
2 -15 -16 -10 -13 3 -40 9 -60 12 -21 4 -38 10 -38 15 0 5 -7 5 -17 2 -10 -4
-14 -2 -10 5 5 6 28 9 60 6 36 -3 59 1 73 10 23 17 32 12 14 -9z m1385 -492
c-16 -175 -13 -164 -81 -250 -52 -65 -86 -95 -177 -156 -61 -42 -152 -97 -202
-122 -49 -26 -117 -70 -151 -98 -35 -29 -76 -60 -93 -70 -28 -17 -31 -17 -31
-1 0 24 53 120 112 199 115 156 487 498 561 515 58 14 65 12 62 -17z m-34770
-598 c0 -52 -3 -95 -7 -95 -12 0 -179 -176 -200 -210 -37 -62 -249 -318 -325
-392 -67 -66 -91 -83 -163 -113 -47 -19 -100 -35 -117 -35 -26 0 -33 -4 -33
-20 0 -41 -85 -13 -140 46 l-42 46 59 27 c32 16 101 55 153 88 52 33 166 98
253 143 87 46 169 96 182 112 13 15 51 78 85 140 34 62 78 133 98 158 33 41
187 200 194 200 2 0 3 -43 3 -95z m-345 -579 c0 -2 -8 -10 -17 -17 -16 -13
-17 -12 -4 4 13 16 21 21 21 13z m4740 -17 c-7 -11 -14 -18 -17 -15 -3 3 -22
-7 -42 -23 -20 -15 -71 -40 -114 -56 -62 -22 -79 -33 -83 -52 -4 -16 -11 -22
-21 -19 -8 3 -21 6 -29 6 -29 0 -11 16 64 58 108 60 199 101 206 95 3 -4 6 -1
6 5 0 6 8 13 18 15 9 3 18 5 20 6 1 0 -2 -8 -8 -20z m-4800 -52 c0 -1 -28 -29
-62 -62 l-63 -60 60 63 c55 58 65 67 65 59z m3152 -93 c-26 -22 -55 -63 -79
-112 l-38 -76 -7 -310 c-6 -277 -22 -473 -40 -492 -3 -3 -14 18 -23 46 -24 73
-59 131 -144 245 -94 125 -199 227 -310 302 -83 56 -227 122 -264 123 -44 0 0
31 171 118 253 129 468 189 681 191 l95 1 -42 -36z m15636 -275 c-3 -8 -7 -3
-11 10 -4 17 -3 21 5 13 5 -5 8 -16 6 -23z m-16518 -52 c14 -6 29 -9 35 -8 5
1 1 -8 -10 -21 -11 -13 -21 -25 -22 -27 -1 -2 -10 2 -19 9 -12 11 -20 11 -34
2 -23 -14 -30 -6 -30 35 0 31 2 33 28 27 15 -4 38 -11 52 -17z m16511 6 c13
-16 12 -17 -3 -4 -17 13 -22 21 -14 21 2 0 10 -8 17 -17z m-16631 -46 c0 -22
18 -89 35 -131 8 -17 5 -18 -31 -12 -21 4 -53 21 -72 37 -18 16 -38 29 -44 29
-7 0 10 23 37 50 54 55 75 62 75 27z m258 -13 c23 -14 42 -27 42 -30 0 -4
-121 54 -130 63 -12 12 48 -11 88 -33z m-105 -85 c120 -60 316 -212 390 -302
61 -75 118 -179 106 -193 -11 -13 2 -139 21 -205 6 -19 10 -36 10 -39 -1 -10
-41 45 -61 83 -20 39 -43 48 -53 21 -12 -31 -6 -191 9 -248 9 -33 14 -60 12
-62 -2 -2 -13 3 -25 12 -27 18 -59 80 -70 131 -4 20 -13 38 -19 40 -43 15 -51
-176 -14 -316 12 -46 20 -85 17 -88 -19 -20 -108 93 -121 155 -9 42 -35 40
-47 -3 -23 -86 -20 -208 8 -319 l7 -28 -26 17 c-30 20 -65 71 -87 130 -48 126
-81 -64 -39 -228 11 -44 27 -94 36 -110 13 -26 13 -31 0 -44 -35 -35 -139 53
-196 166 -41 80 -83 228 -72 249 21 40 64 211 87 344 28 161 48 467 38 573 -6
63 -5 68 10 56 8 -7 22 -11 30 -8 21 8 8 44 -25 70 -16 12 -42 32 -57 44 l-27
22 43 -11 c62 -15 71 -2 43 61 -21 50 -26 71 -15 71 3 0 43 -18 87 -41z m-274
-80 c6 -39 18 -86 25 -104 8 -18 12 -35 10 -38 -8 -8 -83 12 -127 33 -22 11
-47 20 -54 20 -29 0 -10 38 49 97 34 35 68 63 74 63 6 0 16 -32 23 -71z m571
26 c19 -19 32 -35 29 -35 -3 0 -20 16 -39 35 -19 19 -32 35 -29 35 3 0 20 -16
39 -35z m121 -121 c118 -143 197 -267 213 -334 3 -14 -6 0 -20 30 -47 100
-135 228 -223 323 -24 26 -39 47 -34 47 5 0 34 -30 64 -66z m-849 -96 c15 -51
25 -95 22 -97 -7 -7 -137 37 -159 53 -19 14 -17 17 40 75 33 34 62 61 65 61 4
0 18 -42 32 -92z m13045 30 c-3 -7 -5 -2 -5 12 0 14 2 19 5 13 2 -7 2 -19 0
-25z m-10 -90 c-2 -13 -4 -5 -4 17 -1 22 1 32 4 23 2 -10 2 -28 0 -40z
m-12739 -31 c3 -75 -10 -84 -27 -19 -24 96 -24 94 1 90 21 -3 23 -9 26 -71z
m-428 -92 c11 -13 7 -15 -26 -15 -53 1 -114 16 -131 33 -13 12 -7 20 43 60
l58 46 22 -55 c12 -30 27 -61 34 -69z m13529 -47 c1 -14 -4 -12 -24 8 -26 26
-29 44 -18 109 l7 40 17 -70 c10 -38 18 -78 18 -87z m-369 42 c0 -85 -2 -100
-16 -100 -13 0 -15 7 -10 33 3 17 8 62 12 100 4 37 8 67 10 67 2 0 4 -45 4
-100z m-12789 30 c33 -18 49 -64 49 -142 l-1 -73 -35 95 c-53 146 -52 140 -13
120z m-537 -167 c16 -33 16 -33 -7 -33 -12 0 -56 16 -96 35 -84 40 -84 39 5
99 l49 34 16 -52 c9 -28 23 -66 33 -83z m13496 7 c5 0 7 -7 4 -15 -6 -16 -30
-20 -37 -7 -2 4 1 23 6 42 11 35 11 35 15 8 2 -16 7 -28 12 -28z m-8500 -27
c358 -109 752 -257 1070 -401 211 -95 435 -187 500 -206 30 -8 111 -25 180
-36 138 -23 287 -57 254 -59 -11 -1 -29 -7 -39 -15 -11 -8 -25 -12 -31 -9 -7
2 -15 -1 -19 -6 -3 -6 -11 -9 -16 -5 -13 8 -37 -13 -54 -47 -11 -21 -12 -32
-2 -52 20 -43 121 -62 155 -29 18 17 78 15 106 -3 19 -13 36 -14 92 -7 38 5
76 12 84 16 28 12 97 -135 136 -289 27 -110 34 -155 35 -247 1 -154 -26 -258
-146 -548 -105 -257 -135 -346 -164 -500 -34 -174 -71 -492 -81 -699 -5 -108
-14 -225 -19 -261 -6 -36 -17 -140 -25 -231 -21 -221 -39 -324 -78 -443 -25
-74 -38 -100 -54 -107 -14 -5 -35 -36 -58 -83 -33 -70 -41 -80 -106 -122 -120
-77 -177 -97 -204 -71 -11 10 -8 18 20 49 30 33 32 40 24 70 -13 46 -60 86
-158 135 -2 1 22 38 53 83 67 94 95 162 95 226 0 38 -3 45 -17 42 -12 -2 -23
-22 -33 -63 -20 -75 -27 -88 -112 -208 -83 -116 -112 -177 -140 -292 -12 -47
-27 -85 -33 -85 -7 0 -38 9 -70 20 -97 33 -121 29 -181 -35 -66 -69 -94 -73
-94 -15 0 22 4 40 10 40 5 0 7 7 4 15 -3 8 6 36 22 62 18 31 29 66 31 100 4
48 0 60 -38 124 -24 40 -51 74 -62 77 -15 4 -6 17 50 71 74 70 142 183 130
214 -9 24 -26 21 -37 -8 -22 -59 -93 -153 -144 -192 -66 -51 -142 -145 -156
-193 -6 -19 -16 -89 -22 -155 -6 -66 -12 -121 -13 -123 -1 -1 -15 2 -31 9 -16
6 -62 17 -103 25 l-73 14 -93 -46 c-110 -54 -205 -71 -205 -37 0 31 40 84 93
123 47 35 60 63 32 74 -8 3 -15 16 -15 28 -1 29 -23 57 -79 97 l-44 31 69 31
c38 17 110 44 161 60 108 35 162 72 203 137 31 48 66 149 56 159 -12 12 -32
-7 -45 -43 -19 -53 -65 -118 -104 -148 -17 -13 -81 -40 -140 -60 -126 -42
-235 -92 -294 -135 -64 -46 -125 -179 -139 -302 -5 -47 -10 -59 -21 -55 -56
22 -130 12 -205 -25 -52 -26 -75 -24 -81 6 -4 24 16 98 32 120 5 5 11 21 14
34 6 25 -19 61 -99 144 l-27 27 94 44 c125 58 262 106 286 100 31 -8 172 65
223 116 81 81 200 276 342 561 75 150 147 299 161 329 47 105 85 286 118 550
28 231 30 274 26 455 -5 173 -9 214 -32 305 -31 120 -29 116 -145 309 -91 153
-115 191 -240 386 -98 153 -224 391 -214 406 4 7 3 9 -3 6 -5 -3 -39 56 -76
134 l-67 141 28 44 c15 25 37 62 49 82 12 20 27 37 32 37 5 0 13 4 18 9 5 5 3
6 -5 2 -10 -6 -12 3 -6 42 6 46 4 53 -21 77 -36 37 -79 29 -148 -25 -48 -39
-52 -40 -55 -21 -2 12 -8 21 -13 21 -5 0 -8 3 -7 8 1 4 -4 17 -11 30 -7 13
-10 30 -7 38 3 8 2 13 -3 10 -11 -7 -23 22 -14 36 3 6 2 8 -4 5 -6 -4 -15 5
-22 19 -23 50 -32 51 209 -23z m-5169 -75 c11 -20 9 -21 -22 -14 -41 8 -122
47 -126 61 -2 6 23 24 54 42 l57 32 13 -50 c7 -28 18 -59 24 -71z m1512 69
l58 -27 -38 -70 c-21 -38 -43 -70 -49 -70 -6 0 -18 34 -27 75 -18 81 -22 129
-9 123 4 -2 33 -16 65 -31z m-815 -24 c10 -10 27 -23 37 -29 18 -10 18 -16 6
-97 -7 -48 -16 -87 -20 -87 -5 0 -51 199 -51 223 0 11 9 8 28 -10z m-870 -65
c6 -29 23 -69 37 -90 14 -21 23 -38 20 -38 -16 0 -106 54 -147 88 l-48 40 53
25 c28 14 57 26 62 26 6 1 16 -22 23 -51z m18879 6 l59 -6 -33 -89 c-47 -126
-61 -186 -68 -296 -3 -54 -8 -114 -11 -133 -6 -34 -6 -34 -44 45 -21 44 -62
114 -92 155 -60 83 -222 233 -247 228 -36 -7 -18 -37 68 -111 87 -75 172 -182
219 -273 50 -98 115 -301 157 -489 64 -291 167 -545 296 -732 35 -50 147 -181
249 -290 102 -109 196 -214 209 -233 14 -19 45 -56 69 -81 25 -26 59 -69 76
-97 17 -28 50 -77 74 -109 178 -240 237 -323 254 -360 l19 -42 -36 -47 c-19
-25 -57 -80 -83 -121 -26 -41 -75 -118 -109 -171 -69 -107 -79 -137 -65 -200
7 -29 7 -55 -1 -80 -10 -37 -10 -37 -20 -12 -11 31 -75 78 -116 86 -21 5 -40
0 -65 -15 l-34 -22 -11 48 c-6 26 -16 101 -23 166 -15 154 -33 152 -33 -4 1
-166 40 -285 123 -380 l41 -46 -50 -60 c-46 -56 -148 -143 -169 -143 -15 0
-57 -62 -78 -115 -21 -55 -47 -74 -116 -82 -22 -3 -46 -10 -53 -15 -10 -8 -63
-1 -63 8 0 3 7 15 15 28 17 26 14 72 -7 92 -25 24 -112 64 -139 64 -16 0 -29
4 -29 8 0 17 59 100 129 182 88 102 113 153 109 217 -4 58 -28 72 -28 16 0
-57 -40 -128 -124 -223 -85 -95 -134 -180 -166 -289 -20 -63 -22 -89 -18 -183
7 -129 7 -129 -111 -132 -65 -2 -82 -6 -121 -31 -52 -34 -112 -55 -139 -48
-15 4 -18 12 -14 36 15 109 15 116 -5 161 -18 40 -25 46 -51 46 -17 0 -31 4
-31 9 0 21 92 130 149 176 114 93 211 232 236 339 17 69 20 146 6 146 -11 0
-13 -8 -36 -111 -25 -121 -113 -248 -242 -351 -36 -28 -87 -82 -113 -121 -44
-61 -116 -222 -136 -300 -4 -18 -16 -32 -33 -39 -41 -16 -168 -38 -218 -38
-45 0 -143 35 -143 52 0 5 15 18 34 29 19 11 35 28 36 37 8 102 -17 182 -60
192 -24 6 -23 7 20 32 25 14 72 34 104 43 96 27 256 114 256 139 0 6 29 41 65
76 116 115 198 249 235 386 34 121 35 181 6 350 -24 138 -30 157 -83 261 -78
154 -177 279 -377 476 -314 309 -601 546 -761 629 -104 54 -204 121 -296 200
-132 113 -153 138 -182 219 -14 41 -51 127 -81 192 -30 64 -53 117 -51 117 3
0 -4 9 -15 20 -11 11 -20 27 -20 35 0 8 -4 15 -9 15 -5 0 -18 14 -29 32 -17
26 -18 35 -9 47 9 11 9 13 0 8 -14 -9 -18 -3 -27 38 -5 21 -4 26 3 15 8 -12
10 -11 8 7 0 12 -6 21 -12 20 -5 -1 -10 7 -10 18 0 11 -3 22 -7 25 -5 5 -12
59 -9 86 1 14 39 54 52 54 6 0 8 -4 4 -9 -3 -5 -1 -13 5 -16 6 -4 10 -3 9 2
-4 21 2 33 16 33 8 0 34 15 58 33 64 49 209 121 354 176 70 27 214 83 320 125
415 164 1130 300 1420 270z m-17275 -100 c35 -24 35 -51 -1 -129 l-27 -60 -24
60 c-14 37 -25 91 -27 140 l-5 80 28 -36 c16 -20 41 -45 56 -55z m-1802 32 c0
-13 12 -48 28 -78 40 -80 199 -293 260 -349 l54 -49 -35 0 c-48 0 -100 20
-198 76 -204 115 -394 292 -373 347 3 9 26 17 60 22 30 3 85 17 122 30 84 30
82 30 82 1z m1063 -123 c5 -7 12 -11 17 -8 11 7 5 -36 -16 -113 -15 -52 -16
-53 -37 -39 -26 16 -73 141 -83 218 l-7 52 59 -48 c32 -26 63 -54 67 -62z
m-1373 13 c0 -24 3 -65 7 -91 l6 -48 -33 24 c-36 26 -110 125 -110 146 0 9 17
13 65 13 l65 0 0 -44z m-243 -59 c1 -50 6 -105 12 -120 10 -25 9 -28 -6 -25
-23 4 -166 218 -150 223 13 5 67 11 112 13 l30 2 2 -93z m2219 -26 c20 -18 47
-37 60 -43 13 -6 24 -14 24 -18 0 -9 -97 -147 -108 -154 -12 -7 -52 206 -52
269 l1 50 19 -36 c10 -20 35 -51 56 -68z m-2476 20 c0 -38 3 -83 7 -102 l6
-33 -29 21 c-64 46 -146 145 -132 159 4 4 100 21 131 23 15 1 17 -8 17 -68z
m-253 -56 c0 -47 -1 -85 -2 -85 -7 0 -85 138 -85 149 0 5 15 12 33 14 17 2 37
5 42 5 6 1 11 -33 12 -83z m-189 -24 c1 -38 3 -73 4 -78 2 -4 -1 -10 -6 -13
-11 -6 -76 107 -76 132 0 17 17 25 56 27 19 1 21 -5 22 -68z m-198 -9 c0 -15
9 -61 20 -101 12 -40 19 -75 17 -77 -11 -11 -90 62 -126 118 l-41 63 42 12
c73 19 88 17 88 -15z m2465 -64 c24 12 21 -4 -4 -27 -17 -16 -34 -43 -37 -60
-14 -66 -38 -43 -53 49 -6 36 -11 81 -11 100 l0 34 50 -49 c28 -28 53 -49 55
-47z m-2701 -20 c4 -28 13 -66 21 -85 8 -18 11 -33 8 -33 -20 0 -110 70 -135
104 l-29 41 53 11 c29 6 58 12 64 13 6 0 14 -22 18 -51z m3211 -42 c17 -16 43
-37 58 -46 l28 -17 -56 -74 c-31 -41 -61 -74 -68 -74 -17 0 -36 115 -36 215
l0 85 22 -30 c12 -16 36 -43 52 -59z m-847 -244 c28 -56 60 -114 71 -128 l21
-26 -22 -32 c-35 -49 -130 -146 -143 -146 -15 0 -22 42 -35 210 -11 144 -13
374 -3 383 3 4 18 -30 33 -76 15 -45 50 -128 78 -185z m262 121 c7 -9 1 -27
-22 -63 -18 -27 -36 -50 -39 -50 -13 0 -20 71 -13 131 l7 60 29 -33 c15 -18
33 -39 38 -45z m95 -13 c41 -149 131 -287 212 -329 l35 -17 -88 -82 c-48 -45
-90 -82 -94 -82 -4 0 -10 18 -14 41 -4 22 -15 57 -25 77 -41 82 -73 205 -74
292 -2 93 10 188 22 174 4 -5 16 -38 26 -74z m355 -78 c14 -11 35 -22 48 -26
12 -4 22 -12 22 -18 0 -6 -21 -40 -46 -75 -34 -47 -49 -62 -54 -52 -12 22 -50
205 -50 240 l0 32 28 -41 c15 -22 38 -49 52 -60z m-540 -59 c0 -7 -12 -32 -27
-54 -25 -38 -28 -39 -40 -23 -8 11 -13 47 -13 93 l0 75 40 -39 c22 -21 40 -45
40 -52z m99 -24 c1 -25 39 -161 56 -204 8 -17 7 -18 -7 -8 -12 11 -18 10 -31
-5 -28 -31 -55 -105 -63 -169 l-7 -62 -19 24 c-11 14 -22 41 -25 60 -8 51 -18
51 -50 4 -22 -33 -28 -57 -33 -118 l-5 -76 -16 45 c-25 72 -44 64 -73 -30 -14
-45 -26 -102 -26 -127 l0 -47 -31 30 c-52 48 -89 105 -89 136 0 22 -5 28 -21
28 -17 0 -13 10 33 77 29 42 85 111 125 154 76 81 161 193 228 296 36 56 41
60 47 40 3 -12 6 -34 7 -48z m-475 -203 c14 -24 44 -60 67 -79 l41 -36 -47
-66 c-26 -36 -49 -65 -50 -63 -3 3 -29 163 -40 241 -3 26 -4 47 -2 47 3 0 17
-20 31 -44z m570 -83 c4 -13 5 -23 2 -23 -8 0 -36 56 -36 72 0 16 25 -20 34
-49z m-15 -66 l26 -29 -60 -53 c-41 -37 -61 -49 -63 -39 -5 22 16 149 30 179
l12 26 14 -28 c8 -15 26 -41 41 -56z m-621 -122 c46 -19 50 -29 27 -62 -9 -12
-26 -51 -39 -85 l-24 -63 -12 30 c-31 81 -51 151 -59 206 l-8 60 36 -35 c20
-19 55 -42 79 -51z m427 46 c3 -11 21 -33 40 -50 l34 -30 -46 -40 c-25 -23
-50 -41 -54 -41 -10 0 -12 87 -3 143 7 40 19 48 29 18z m-361 -170 c-14 -61
-10 -137 12 -217 4 -17 -1 -24 -27 -34 -28 -12 -33 -12 -45 4 -14 20 -11 88 8
166 11 46 57 154 63 148 2 -2 -3 -32 -11 -67z m272 11 l31 -37 -48 -43 -49
-44 0 31 c0 40 20 131 28 130 4 0 21 -17 38 -37z m-145 -133 l31 -27 -38 -41
c-25 -28 -44 -41 -58 -39 -19 3 -22 13 -29 83 -4 44 -5 91 -2 103 6 23 7 22
36 -15 16 -21 43 -50 60 -64z m-258 11 c24 -8 27 -15 27 -52 0 -68 -12 -74
-47 -26 -29 41 -63 101 -63 112 0 3 12 -2 28 -10 15 -8 39 -19 55 -24z m16786
-407 c-1 -65 -2 -73 -10 -46 -5 18 -18 35 -30 38 -21 7 -21 7 2 19 15 7 25 22
27 39 6 52 12 26 11 -50z"/>
<path d="M7898 18316 c-297 -121 -655 -406 -867 -691 -129 -173 -242 -288
-351 -358 l-26 -17 8 84 c4 45 14 113 22 150 26 110 3 115 -98 19 -39 -38
-102 -95 -140 -127 -100 -86 -189 -196 -239 -294 -77 -150 -137 -296 -130
-320 3 -12 9 -19 14 -16 5 2 51 91 103 197 78 159 105 204 158 262 60 67 204
201 249 233 21 15 22 14 16 -14 -4 -16 -10 -70 -13 -119 -6 -76 -4 -92 10
-104 56 -46 264 128 456 384 116 154 293 331 438 438 115 86 240 163 248 154
4 -3 -3 -18 -14 -34 -61 -87 -75 -154 -51 -248 16 -62 78 -131 132 -146 60
-16 138 -13 183 7 l39 18 -80 6 c-125 11 -161 24 -195 72 -17 23 -30 45 -30
50 0 4 18 8 39 8 88 0 278 87 342 157 24 25 45 93 29 93 -3 0 -19 -14 -36 -31
-72 -75 -263 -169 -344 -169 -36 0 -40 2 -40 26 0 68 112 217 208 278 42 26
55 59 29 69 -8 3 -39 -5 -69 -17z"/>
<path d="M7480 17658 c-71 -40 -156 -127 -199 -203 -76 -132 -158 -260 -185
-287 -35 -36 -177 -108 -271 -137 -109 -35 -125 -42 -125 -58 0 -11 7 -14 24
-11 19 4 26 0 30 -18 9 -35 42 -38 163 -15 111 21 208 63 280 120 40 31 98
116 178 259 69 123 128 191 204 235 62 36 74 63 43 94 -10 10 -22 26 -25 36
-10 26 -55 21 -117 -15z"/>
<path d="M7573 17479 c-70 -35 -112 -117 -128 -250 -8 -69 13 -103 64 -101 84
2 241 157 241 237 0 31 -33 95 -49 95 -5 0 -11 9 -14 20 -7 27 -59 27 -114 -1z
m87 -56 c41 -36 39 -72 -7 -136 -36 -49 -113 -107 -141 -107 -32 0 6 169 50
220 12 15 59 50 65 50 2 0 17 -12 33 -27z"/>
<path d="M20671 17284 c0 -11 3 -14 6 -6 3 7 2 16 -1 19 -3 4 -6 -2 -5 -13z"/>
<path d="M20516 17117 c3 -10 9 -15 12 -12 3 3 0 11 -7 18 -10 9 -11 8 -5 -6z"/>
<path d="M24250 16770 c0 -5 5 -10 10 -10 6 0 10 5 10 10 0 6 -4 10 -10 10 -5
0 -10 -4 -10 -10z"/>
<path d="M5587 16585 c-68 -52 -117 -155 -124 -264 -6 -78 -5 -81 16 -81 17 0
21 6 21 29 0 75 76 243 117 258 32 11 49 36 45 65 -6 37 -20 35 -75 -7z"/>
<path d="M5674 16481 c-70 -69 -86 -92 -104 -144 -27 -77 -26 -113 4 -132 66
-43 174 77 192 212 12 90 -34 123 -92 64z"/>
<path d="M16995 16249 c-4 -6 -5 -12 -2 -15 2 -3 7 2 10 11 7 17 1 20 -8 4z"/>
<path d="M16925 16020 c-3 -6 1 -7 9 -4 18 7 21 14 7 14 -6 0 -13 -4 -16 -10z"/>
<path d="M23680 14480 c0 -5 5 -10 11 -10 5 0 7 5 4 10 -3 6 -8 10 -11 10 -2
0 -4 -4 -4 -10z"/>
<path d="M23682 14428 c2 -5 8 -9 13 -9 5 0 11 4 13 9 1 5 -4 9 -13 9 -9 0
-14 -4 -13 -9z"/>
<path d="M8320 16986 c0 -7 11 -21 25 -30 14 -10 42 -43 62 -74 50 -79 94
-132 108 -132 7 0 18 6 24 14 19 22 -7 65 -111 190 -15 18 -33 33 -40 33 -7 0
-26 3 -41 7 -20 5 -27 3 -27 -8z"/>
<path d="M8186 16843 c-14 -14 -4 -30 27 -45 55 -27 134 -98 172 -155 36 -55
50 -61 69 -30 8 12 6 25 -9 49 -37 64 -78 108 -100 108 -13 0 -28 7 -36 16
-21 26 -112 68 -123 57z"/>
<path d="M7840 16809 c0 -5 5 -7 10 -4 6 3 10 8 10 11 0 2 -4 4 -10 4 -5 0
-10 -5 -10 -11z"/>
<path d="M11991 16074 c0 -11 3 -14 6 -6 3 7 2 16 -1 19 -3 4 -6 -2 -5 -13z"/>
<path d="M12071 16004 c0 -11 3 -14 6 -6 3 7 2 16 -1 19 -3 4 -6 -2 -5 -13z"/>
<path d="M23496 15293 c-6 -14 -5 -15 5 -6 7 7 10 15 7 18 -3 3 -9 -2 -12 -12z"/>
<path d="M23466 15287 c3 -10 9 -15 12 -12 3 3 0 11 -7 18 -10 9 -11 8 -5 -6z"/>
<path d="M23491 15261 c-8 -5 -9 -11 -3 -15 5 -3 12 1 16 9 6 17 6 18 -13 6z"/>
<path d="M23562 15010 c0 -14 2 -19 5 -12 2 6 2 18 0 25 -3 6 -5 1 -5 -13z"/>
</g>
</svg>
