<?xml version="1.0" standalone="no"?>
<!DOCTYPE svg PUBLIC "-//W3C//DTD SVG 20010904//EN"
 "http://www.w3.org/TR/2001/REC-SVG-20010904/DTD/svg10.dtd">
<svg version="1.0" xmlns="http://www.w3.org/2000/svg"
 width="1600.000000pt" height="1200.000000pt" viewBox="0 0 1600.000000 1200.000000"
 preserveAspectRatio="xMidYMid meet">

<g transform="translate(0.000000,1200.000000) scale(0.100000,-0.100000)"
fill="#000000" stroke="none">
<path d="M0 6000 l0 -6000 8000 0 8000 0 0 6000 0 6000 -8000 0 -8000 0 0
-6000z m10675 5472 c-29 -84 -39 -224 -27 -371 7 -75 18 -158 26 -186 23 -87
111 -249 150 -278 6 -4 -50 -4 -124 -1 -74 4 -136 8 -138 9 -2 2 -6 43 -9 92
-6 91 9 235 29 278 6 13 8 31 4 40 -5 14 -8 14 -25 -2 -45 -44 -55 -88 -56
-254 l0 -157 -44 -6 c-24 -3 -66 -6 -92 -6 -62 0 -189 -22 -189 -32 0 -4 -5
-8 -10 -8 -12 0 -9 29 22 230 22 147 37 250 37 269 1 20 140 159 269 269 63
53 130 111 150 129 20 17 38 31 39 29 1 -1 -4 -21 -12 -44z m-5285 13 c0 -15
-35 -42 -48 -37 -10 3 -13 1 -8 -6 5 -8 -3 -12 -23 -12 -41 0 -39 7 9 27 22
10 40 21 40 25 0 5 7 8 15 8 8 0 15 -2 15 -5z m2020 -25 c0 -5 -9 -10 -20 -10
-11 0 -20 -4 -20 -10 0 -6 -27 -10 -62 -9 -45 0 -57 3 -43 9 11 5 34 9 52 9
17 1 35 6 38 11 3 6 17 10 31 10 13 0 24 -4 24 -10z m-2120 -45 c0 -3 -18 -13
-40 -22 -22 -10 -40 -21 -40 -25 0 -5 -11 -8 -25 -8 -14 0 -25 3 -25 8 0 8 49
32 67 32 7 0 13 5 13 10 0 6 11 10 25 10 14 0 25 -2 25 -5z m50 -10 c0 -8 -2
-15 -4 -15 -2 0 -6 7 -10 15 -3 8 -1 15 4 15 6 0 10 -7 10 -15z m1925 3 c-11
-7 -34 -11 -51 -9 -18 1 -35 -2 -39 -8 -3 -6 -26 -11 -51 -11 -24 0 -44 -4
-44 -10 0 -5 -23 -10 -51 -10 -31 0 -48 -4 -44 -10 3 -5 -3 -10 -15 -10 -12 0
-28 -7 -37 -15 -8 -9 -20 -14 -25 -13 -11 4 -12 19 -1 17 3 0 10 6 15 15 5 9
18 16 28 16 10 0 22 5 25 10 3 6 24 10 46 10 21 0 39 5 39 10 0 6 25 10 56 10
34 0 53 4 49 10 -4 6 17 10 57 10 53 -1 60 -2 43 -12z m95 -23 c0 -2 -7 -5
-15 -9 -9 -3 -15 0 -15 9 0 9 6 12 15 9 8 -4 15 -7 15 -9z m-2195 -35 c4 -6
-5 -10 -20 -10 -15 0 -24 4 -20 10 3 6 12 10 20 10 8 0 17 -4 20 -10z m-54
-41 c-11 -11 -23 -19 -26 -19 -10 0 -35 -28 -35 -39 0 -6 -4 -11 -10 -11 -14
0 -13 18 3 36 39 47 59 63 73 57 13 -5 12 -8 -5 -24z m2229 1 c0 -16 -2 -30
-4 -30 -2 0 -6 14 -8 30 -3 17 -1 30 4 30 4 0 8 -13 8 -30z m-2003 -22 c-3 -8
-6 -5 -6 6 -1 11 2 17 5 13 3 -3 4 -12 1 -19z m1563 12 c0 -5 -6 -10 -13 -10
-7 0 -19 -9 -27 -20 -8 -11 -20 -20 -28 -20 -7 0 -11 -4 -8 -8 3 -5 -12 -24
-32 -43 -20 -19 -46 -47 -57 -62 -11 -15 -24 -27 -30 -27 -6 0 -18 -13 -27
-28 -10 -16 -35 -48 -58 -70 -22 -23 -40 -45 -40 -48 0 -4 -10 -15 -22 -25
-21 -19 -19 -19 110 -19 81 0 132 -4 132 -10 0 -6 35 -10 86 -10 54 0 83 -4
79 -10 -3 -5 1 -10 9 -10 10 0 16 9 16 23 0 27 48 127 61 127 5 0 9 9 9 21 0
11 5 17 10 14 6 -3 10 2 10 12 1 28 28 59 41 46 7 -7 6 -14 -3 -24 -8 -8 -21
-29 -29 -46 -7 -18 -20 -33 -27 -33 -7 0 -11 -4 -7 -9 3 -5 -2 -16 -10 -24 -8
-9 -15 -25 -15 -36 0 -12 -4 -21 -10 -21 -5 0 -10 -9 -10 -21 0 -11 -7 -27
-16 -36 -12 -13 -20 -14 -41 -4 -17 8 -112 14 -255 18 -125 3 -228 9 -228 12
0 3 71 6 157 5 158 -1 158 -1 21 3 -76 2 -138 6 -138 9 0 5 46 57 103 115 20
21 37 41 37 44 0 4 20 27 45 52 25 24 45 47 45 49 0 2 29 33 66 69 60 60 94
80 94 55z m-1880 -95 c-7 -14 -19 -25 -27 -25 -7 0 -13 -7 -13 -15 0 -8 -4
-15 -8 -15 -5 0 -15 -12 -23 -27 -20 -39 -41 -63 -51 -57 -4 3 -8 -6 -8 -20 0
-14 -4 -26 -10 -26 -5 0 -10 -7 -10 -15 0 -8 -3 -15 -8 -15 -4 0 -13 -13 -20
-30 -8 -16 -20 -30 -28 -30 -8 0 -14 -7 -14 -15 0 -8 -4 -15 -10 -15 -5 0 -10
-6 -10 -13 0 -7 -16 -30 -35 -52 -49 -57 -46 -65 24 -65 33 0 63 -4 66 -10 4
-6 -24 -10 -77 -10 -57 0 -78 -3 -68 -10 11 -7 7 -10 -17 -10 -18 0 -36 0 -40
-1 -4 0 -9 4 -11 10 -2 6 5 11 15 11 10 0 29 16 42 35 13 19 27 32 32 29 5 -3
6 2 3 10 -4 9 1 18 10 22 9 3 16 12 16 20 0 8 5 14 10 14 6 0 10 4 10 10 0 9
25 42 58 76 6 7 12 16 12 20 0 10 71 108 82 112 4 2 8 10 8 18 0 8 5 14 10 14
6 0 10 6 10 13 0 6 16 29 35 49 19 20 35 42 35 49 0 10 3 10 12 1 9 -9 8 -17
-2 -37z m370 9 c0 -8 -5 -12 -10 -9 -6 4 -8 11 -5 16 9 14 15 11 15 -7z m1950
-123 c-7 -41 -8 -37 -8 34 0 61 2 72 8 46 4 -18 4 -54 0 -80z m-1953 57 c-3
-8 -6 -5 -6 6 -1 11 2 17 5 13 3 -3 4 -12 1 -19z m1809 -15 c15 -20 19 -93 5
-93 -5 0 -16 -16 -25 -35 -10 -20 -21 -33 -27 -30 -5 4 -9 -5 -9 -19 0 -14 -4
-26 -10 -26 -5 0 -10 -9 -10 -20 0 -11 -4 -20 -10 -20 -5 0 -10 11 -10 25 0
14 3 25 8 25 4 0 16 18 26 40 10 22 23 37 27 34 5 -3 9 7 9 21 0 15 4 24 10
20 6 -4 10 10 10 34 0 40 -1 41 -35 41 -19 0 -35 5 -35 10 0 17 62 11 76 -7z
m174 -89 c0 -41 -4 -63 -10 -59 -5 3 -10 35 -10 71 0 41 4 63 10 59 6 -3 10
-35 10 -71z m-2050 6 c0 -5 -9 -10 -20 -10 -11 0 -20 5 -20 10 0 6 9 10 20 10
11 0 20 -4 20 -10z m-1600 -20 c0 -5 -2 -10 -4 -10 -3 0 -8 5 -11 10 -3 6 -1
10 4 10 6 0 11 -4 11 -10z m1537 -33 c-11 -31 -12 -31 -15 -7 -2 13 1 26 7 28
6 2 8 9 5 14 -4 7 -2 8 4 4 8 -5 8 -15 -1 -39z m86 -4 c-1 -21 -2 -55 -2 -76
-1 -23 -5 -36 -11 -32 -5 3 -10 -1 -10 -9 0 -13 14 -16 80 -16 47 0 80 4 80
10 0 13 100 13 120 0 11 -7 0 -10 -37 -10 -29 0 -53 -4 -53 -10 0 -6 -38 -10
-95 -10 -57 0 -95 -4 -95 -10 0 -5 -6 -10 -13 -10 -9 0 -11 12 -9 40 2 22 8
40 13 40 5 0 9 29 9 65 0 45 4 65 13 65 8 0 11 -13 10 -37z m-1643 22 c0 -7
-32 -45 -54 -64 -48 -41 -66 -63 -60 -73 4 -6 3 -9 -2 -5 -5 3 -27 -10 -48
-29 -21 -19 -35 -34 -32 -34 4 0 0 -10 -8 -22 -8 -13 -16 -42 -17 -65 -4 -65
-19 -51 -19 17 l0 61 111 109 c99 98 129 122 129 105z m1530 -76 c0 -31 -4
-48 -10 -44 -6 4 -10 -7 -10 -24 0 -17 -4 -31 -10 -31 -5 0 -9 -6 -7 -12 1 -7
-4 -13 -10 -12 -7 1 -32 2 -55 4 -24 1 -34 4 -23 7 74 16 85 24 85 57 0 17 5
37 11 43 9 9 15 29 18 56 1 4 3 7 6 7 3 0 5 -23 5 -51z m221 28 c-10 -9 -11
-8 -5 6 3 10 9 15 12 12 3 -3 0 -11 -7 -18z m-1731 -23 c0 -14 -4 -23 -9 -20
-5 3 -7 15 -4 26 7 28 13 25 13 -6z m3087 -6 c-3 -8 -6 -5 -6 6 -1 11 2 17 5
13 3 -3 4 -12 1 -19z m560 0 c-3 -8 -6 -5 -6 6 -1 11 2 17 5 13 3 -3 4 -12 1
-19z m-3617 -53 c0 -25 -4 -45 -10 -45 -5 0 -10 20 -10 45 0 25 5 45 10 45 6
0 10 -20 10 -45z m3350 -4 c0 -5 9 -7 20 -4 11 3 26 1 33 -5 7 -6 63 -10 129
-11 65 0 125 -4 135 -10 13 -7 -28 -10 -144 -11 -114 0 -163 3 -163 11 0 7
-10 9 -25 7 -27 -6 -32 1 -13 20 14 14 28 16 28 3z m-2295 -81 c8 -12 155 -11
155 1 0 5 42 9 93 8 99 -1 88 -16 -13 -18 -31 -1 -61 -6 -67 -12 -7 -7 -38 -9
-84 -6 -91 7 -99 8 -93 18 2 4 -2 10 -8 12 -9 4 -10 6 -1 6 6 1 15 -3 18 -9z
m-2262 -87 c-9 -3 -14 -42 -15 -136 l-2 -132 -6 117 -5 117 -24 -29 c-13 -17
-29 -30 -37 -30 -8 0 -14 -7 -14 -15 0 -8 -5 -15 -11 -15 -5 0 -7 -4 -4 -10 3
-5 -1 -10 -9 -10 -9 0 -16 -4 -16 -10 0 -5 -5 -10 -11 -10 -13 0 -39 -25 -39
-38 0 -5 -10 -16 -22 -25 -39 -26 -68 -54 -68 -66 0 -7 -4 -9 -10 -6 -5 3 -10
1 -10 -5 0 -12 -24 -40 -35 -40 -9 0 -35 -27 -35 -37 0 -5 -9 -15 -19 -23 -11
-7 -18 -17 -15 -22 3 -4 -2 -8 -10 -8 -9 0 -16 -8 -17 -17 -3 -67 1 -126 10
-159 6 -21 11 -71 11 -111 0 -39 5 -75 10 -78 6 -3 10 -28 10 -56 0 -27 5 -49
10 -49 6 0 11 -19 11 -42 1 -24 4 -34 6 -23 6 21 108 125 123 125 6 0 10 4 10
9 0 5 16 11 36 13 46 5 74 -18 75 -63 1 -19 3 -26 6 -16 2 9 9 15 14 12 5 -4
9 1 9 9 0 9 5 16 10 16 6 0 10 7 10 15 0 8 5 15 10 15 6 0 10 6 10 14 0 8 6
16 13 19 9 3 9 8 -2 21 -8 10 -14 33 -13 51 2 18 -2 36 -8 40 -5 3 -10 43 -10
90 0 78 2 85 26 104 35 28 84 6 84 -37 0 -11 5 -22 11 -24 5 -2 10 -31 10 -66
1 -38 5 -62 11 -62 6 0 8 -3 5 -7 -4 -3 -2 -12 3 -18 7 -9 6 -16 -5 -25 -13
-10 -15 -9 -15 9 0 11 -4 21 -10 21 -6 0 -10 30 -10 71 0 44 -4 68 -10 64 -6
-4 -10 8 -10 29 0 34 -2 36 -35 36 l-35 0 0 -82 c0 -57 3 -78 10 -68 7 10 10
-5 10 -53 0 -38 4 -66 9 -63 16 10 21 -23 6 -38 -8 -8 -15 -18 -15 -23 0 -5
-9 -15 -20 -23 -11 -8 -20 -19 -20 -25 0 -6 -10 -22 -22 -35 -13 -14 -24 -32
-26 -40 -4 -15 -21 -30 -34 -30 -5 0 -8 12 -8 26 0 14 4 23 10 19 6 -4 10 13
10 44 l0 51 -43 0 c-31 0 -46 -5 -57 -20 -8 -11 -20 -20 -27 -20 -7 0 -12 -6
-10 -12 1 -7 -4 -12 -10 -11 -7 2 -13 -1 -13 -7 0 -5 -17 -27 -37 -50 -40 -44
-53 -40 -53 18 0 17 -4 32 -10 32 -5 0 -10 20 -10 45 0 25 -4 45 -10 45 -6 0
-10 40 -11 98 0 63 -3 90 -9 77 -6 -13 -9 16 -9 82 -1 56 -3 108 -6 115 -6 15
162 195 177 191 4 -2 8 2 8 8 0 13 189 199 202 199 5 0 23 16 40 35 17 20 33
33 37 29 3 -4 0 -9 -6 -11z m1194 1 c-3 -3 -12 -4 -19 -1 -8 3 -5 6 6 6 11 1
17 -2 13 -5z m-285 -76 c-2 -21 -8 -38 -12 -38 -4 0 -9 -55 -9 -122 -1 -69 -6
-124 -11 -126 -13 -5 -13 -52 -1 -52 6 0 13 5 16 10 3 6 19 10 36 10 16 0 29
5 29 10 0 6 14 10 30 10 17 0 30 5 30 10 0 6 14 10 31 10 17 0 28 -4 24 -10
-3 -5 -15 -10 -26 -10 -10 0 -19 -4 -19 -10 0 -5 -11 -10 -25 -10 -14 0 -25
-4 -25 -10 0 -5 -13 -10 -30 -10 -16 0 -30 -4 -30 -10 0 -5 -9 -10 -21 -10
-26 0 -49 -23 -49 -49 0 -12 -6 -21 -13 -21 -9 0 -12 10 -9 30 2 17 8 30 13
30 5 0 9 24 9 54 0 30 5 58 10 61 6 3 10 52 10 110 0 58 4 107 10 110 6 3 10
18 10 33 0 15 3 38 7 51 6 22 7 23 13 5 4 -10 5 -36 2 -56z m313 52 c4 -6 -10
-10 -34 -10 -23 0 -41 5 -41 10 0 6 15 10 34 10 19 0 38 -4 41 -10z m-75 -270
c8 12 10 11 10 -7 0 -18 -6 -23 -25 -23 -23 0 -35 14 -17 22 4 2 5 54 2 116
-3 66 -1 123 5 135 7 16 11 -15 13 -118 2 -93 6 -135 12 -125z m101 198 c1
-29 4 -43 6 -30 9 46 18 20 15 -43 -3 -54 -1 -65 12 -65 9 0 16 5 16 10 0 6
13 10 29 10 17 0 33 5 36 10 3 6 22 10 41 10 21 0 33 4 29 10 -4 6 5 10 19 10
14 0 26 6 27 13 0 10 2 10 6 0 2 -7 17 -13 31 -13 21 0 24 -2 12 -10 -8 -5
-30 -10 -47 -10 -18 0 -33 -4 -33 -10 0 -5 -16 -10 -35 -10 -19 0 -35 -4 -35
-10 0 -5 -16 -10 -36 -10 -21 0 -33 -4 -29 -10 4 -6 -5 -10 -19 -10 -14 0 -26
-4 -26 -10 0 -5 -4 -10 -9 -10 -5 0 -11 28 -14 63 -3 34 -9 86 -13 115 -4 36
-3 52 5 52 6 0 12 -21 12 -52z m-303 7 c-3 -3 -9 2 -12 12 -6 14 -5 15 5 6 7
-7 10 -15 7 -18z m525 -42 c-7 -2 -19 -2 -25 0 -7 3 -2 5 12 5 14 0 19 -2 13
-5z m-1506 -95 c-2 -18 -4 -6 -4 27 0 33 2 48 4 33 2 -15 2 -42 0 -60z m1618
72 c26 -6 22 -8 -23 -9 -33 -1 -51 3 -47 9 7 11 26 11 70 0z m5050 -17 c-57
-132 -59 -144 -59 -293 -1 -123 2 -150 18 -180 37 -68 88 -130 127 -152 21
-12 39 -24 39 -27 0 -3 -20 -21 -44 -39 -40 -30 -56 -44 -124 -105 -22 -20
-22 -20 -37 -1 -30 40 -48 91 -62 173 -23 145 -27 206 -13 231 10 18 9 25 -5
39 -15 15 -17 14 -36 -9 -17 -22 -19 -36 -15 -130 5 -111 10 -151 28 -215 13
-42 54 -115 72 -127 6 -4 8 -9 6 -12 -3 -3 -63 -65 -135 -139 -71 -73 -156
-162 -187 -198 -75 -84 -81 -76 -73 96 14 307 27 503 35 540 5 22 10 63 10 90
l0 50 108 105 c60 58 149 141 197 185 49 44 101 92 115 107 29 31 46 36 35 11z
m-5520 -163 c4 -6 -5 -10 -20 -10 -15 0 -24 4 -20 10 3 6 12 10 20 10 8 0 17
-4 20 -10z m-905 -203 c8 -3 3 -6 -13 -6 -16 -1 -26 3 -22 9 3 6 1 10 -4 10
-6 0 -11 5 -11 12 0 7 6 6 18 -4 9 -9 24 -18 32 -21z m60 -47 c0 -5 -7 -10
-15 -10 -8 0 -15 5 -15 10 0 6 7 10 15 10 8 0 15 -4 15 -10z m-37 -17 c4 -3
-12 -20 -36 -37 -23 -17 -48 -36 -55 -43 -21 -20 -49 -33 -56 -26 -4 4 5 17
20 29 14 13 23 28 19 33 -4 7 0 8 10 5 20 -8 65 15 65 33 0 13 22 18 33 6z
m4892 -745 c-19 -93 -22 -319 -4 -395 24 -111 127 -255 192 -268 18 -4 48 -16
67 -27 30 -18 52 -21 158 -21 67 0 122 -2 122 -4 0 -15 -100 -138 -195 -241
-22 -24 -62 -76 -88 -115 -27 -40 -55 -81 -64 -91 -15 -19 -16 -19 -34 5 -18
24 -81 147 -117 230 -29 65 -43 139 -49 252 -5 104 -20 125 -36 51 -10 -47 0
-225 13 -238 6 -6 10 -16 10 -24 0 -8 7 -30 16 -50 9 -21 21 -48 26 -62 27
-65 76 -151 104 -181 13 -14 24 -29 24 -33 0 -9 -171 -219 -182 -224 -5 -2 -8
-9 -8 -16 0 -16 -95 -105 -136 -128 l-32 -18 -6 68 c-3 37 -10 117 -15 177 -5
61 -11 117 -15 125 -3 8 -10 60 -16 115 -6 55 -16 134 -21 175 -10 72 -22 194
-35 345 -5 64 -3 77 26 144 18 41 42 91 54 110 24 37 60 101 92 161 11 19 21
37 24 40 3 3 12 19 21 35 23 43 43 79 49 85 3 3 14 23 25 45 44 91 53 83 30
-27z m-6345 -195 c0 -5 -7 -16 -14 -26 -8 -10 -12 -28 -10 -40 2 -12 2 -16 -2
-9 -8 17 -24 15 -24 -4 0 -8 -4 -12 -10 -9 -5 3 -10 -1 -10 -9 0 -9 -5 -16
-11 -16 -8 0 -10 -15 -4 -52 10 -69 13 -113 15 -225 1 -65 5 -90 14 -87 8 3
10 -8 8 -37 -4 -33 -2 -40 9 -34 11 6 12 5 2 -6 -7 -7 -13 -24 -12 -38 0 -16
3 -20 6 -11 4 8 14 22 25 31 10 9 18 22 18 28 0 7 5 9 10 6 13 -8 40 19 40 41
0 10 3 15 6 11 4 -3 13 0 20 8 17 17 18 74 1 96 -14 18 -10 119 4 119 5 0 9
-25 9 -55 0 -30 5 -55 10 -55 6 0 10 -18 10 -39 0 -22 5 -41 12 -43 12 -4
-158 -178 -173 -178 -10 0 -19 41 -19 93 0 26 -4 47 -10 47 -6 0 -10 35 -10
85 0 50 -4 85 -10 85 -6 0 -10 42 -10 105 0 63 4 105 10 105 6 0 10 6 10 13 0
7 11 24 24 39 14 14 22 29 19 32 -4 3 1 6 10 6 10 0 17 7 17 15 0 8 5 15 10
15 6 0 10 -3 10 -7z m186 -307 c8 -8 14 -24 14 -36 0 -19 1 -20 16 -6 16 17
34 21 34 9 0 -5 -12 -21 -26 -38 -21 -24 -27 -27 -34 -15 -6 8 -10 27 -10 43
0 15 -4 27 -10 27 -5 0 -10 7 -10 15 0 19 7 19 26 1z m-739 -508 c-3 -7 -5 -2
-5 12 0 14 2 19 5 13 2 -7 2 -19 0 -25z m-8 -59 c-14 -28 -19 -23 -19 19 1 34
2 36 15 18 10 -13 11 -24 4 -37z m-29 -45 c0 -24 -4 -33 -11 -28 -8 5 -10 -1
-7 -20 3 -17 0 -33 -9 -42 -10 -10 -13 -25 -9 -44 3 -16 1 -32 -4 -35 -6 -3
-7 1 -4 9 10 26 -4 18 -20 -11 l-15 -28 -1 28 c0 15 5 27 10 27 6 0 10 16 10
35 0 19 5 35 10 35 6 0 10 9 10 20 0 11 4 28 9 38 5 9 12 25 15 35 9 28 16 20
16 -19z m108 -84 c-18 -16 -38 -30 -45 -30 -7 0 -13 -6 -13 -13 0 -7 -12 -21
-27 -32 -14 -11 -32 -26 -39 -32 -14 -15 -44 -17 -44 -5 0 5 11 15 25 22 13 7
22 17 19 22 -3 4 1 8 8 8 8 0 31 16 51 35 20 19 42 35 47 35 6 0 10 5 10 10 0
6 9 10 21 10 18 0 16 -4 -13 -30z m-174 -124 c19 -6 18 -7 -2 -26 -27 -25 -42
-25 -42 -1 0 28 12 54 19 44 3 -5 15 -13 25 -17z m6092 -736 c21 -96 34 -120
86 -164 50 -43 88 -46 156 -12 46 23 112 41 112 30 0 -3 -10 -20 -23 -37 -34
-46 -88 -162 -102 -217 -9 -37 -47 -110 -57 -110 -4 0 -8 7 -8 15 0 9 -7 27
-16 40 -9 13 -17 30 -18 37 -2 7 -15 38 -29 69 -14 31 -29 73 -32 93 -6 29
-12 36 -31 36 -20 0 -24 -5 -24 -29 0 -17 5 -33 10 -36 6 -3 10 -15 10 -25 0
-11 7 -36 17 -57 46 -106 87 -189 96 -194 10 -7 -26 -67 -48 -81 -6 -3 -26
-20 -45 -37 -52 -46 -49 -48 -95 64 -7 17 -18 46 -26 65 -11 31 -72 168 -101
227 -6 12 -8 32 -5 45 3 13 13 55 22 93 9 39 21 86 25 105 5 19 15 62 23 95
12 54 41 157 54 195 3 8 12 -19 19 -60 8 -41 21 -109 30 -150z m1233 -277 c0
-25 -1 -26 -9 -8 -12 27 -12 35 0 35 6 0 10 -12 9 -27z m-69 -3 c-7 -4 -9 -18
-5 -36 6 -29 6 -29 -11 4 -14 28 -15 35 -4 42 8 5 18 6 23 3 5 -3 4 -9 -3 -13z
m87 -32 c-3 -8 -6 -5 -6 6 -1 11 2 17 5 13 3 -3 4 -12 1 -19z m-24 -18 c-3
-12 -8 -19 -11 -16 -5 6 5 36 12 36 2 0 2 -9 -1 -20z m-84 -32 c40 -37 51 -58
31 -58 -6 0 -13 7 -17 16 -9 23 -60 74 -67 67 -3 -4 -6 -1 -6 6 0 18 12 12 59
-31z m101 -8 c18 -12 2 -12 -25 0 -13 6 -15 9 -5 9 8 0 22 -4 30 -9z m-10 -40
c0 -5 -4 -10 -10 -10 -5 0 -10 5 -10 10 0 6 5 10 10 10 6 0 10 -4 10 -10z
m-19 -45 c12 8 11 -6 -1 -25 -8 -13 -10 -13 -10 2 0 9 -5 18 -12 20 -8 3 -9
11 -3 24 8 18 9 18 12 -4 3 -12 9 -20 14 -17z m-145 -94 c-5 -2 -13 4 -18 13
-5 9 -16 16 -24 16 -8 0 -12 5 -9 10 3 6 -1 10 -10 10 -9 0 -13 5 -10 10 4 7
22 -2 44 -22 20 -18 32 -35 27 -37z m-71 20 c3 -5 1 -12 -5 -16 -5 -3 -10 1
-10 9 0 18 6 21 15 7z m135 -51 c18 -16 21 -23 12 -32 -9 -9 -12 -8 -12 5 0 9
-7 17 -16 17 -8 0 -13 4 -9 9 3 5 -3 12 -12 14 -15 4 -15 5 -2 6 9 0 26 -8 39
-19z m-57 -7 c-13 -2 -33 -2 -45 0 -13 2 -3 4 22 4 25 0 35 -2 23 -4z m-73
-13 c0 -5 -2 -10 -4 -10 -3 0 -8 5 -11 10 -3 6 -1 10 4 10 6 0 11 -4 11 -10z
m-7 -40 c3 -12 0 -20 -7 -20 -6 0 -12 9 -12 20 0 11 3 20 7 20 4 0 9 -9 12
-20z m33 0 c8 0 11 -6 8 -15 -4 -8 -10 -15 -16 -15 -5 0 -7 4 -3 9 3 5 1 12
-5 16 -5 3 -10 12 -9 18 0 9 2 9 6 0 2 -7 11 -13 19 -13z m79 -9 c3 -6 -2 -16
-10 -23 -9 -7 -23 -19 -31 -27 -13 -12 -18 -12 -32 3 -10 10 -12 16 -4 16 7 0
12 -5 12 -10 0 -6 8 -5 20 2 11 7 20 21 20 30 0 19 15 24 25 9z m-115 -76 c7
-9 8 -15 2 -15 -5 0 -12 7 -16 15 -3 8 -4 15 -2 15 2 0 9 -7 16 -15z m1567
-87 c-2 -13 -4 -5 -4 17 -1 22 1 32 4 23 2 -10 2 -28 0 -40z m-3240 -369 c26
-28 85 -76 130 -106 45 -30 89 -61 97 -69 25 -25 99 -54 139 -54 20 0 37 -3
37 -6 0 -19 -70 -158 -117 -232 l-34 -53 -28 23 c-27 22 -65 87 -91 156 -15
40 -50 45 -50 8 0 -14 4 -27 9 -30 5 -3 12 -18 15 -32 8 -30 56 -105 94 -146
l26 -28 -30 -32 c-74 -81 -136 -118 -195 -118 -25 0 -29 4 -29 28 0 15 -4 43
-10 62 -21 79 -34 680 -14 680 2 0 25 -23 51 -51z m3170 -86 c-3 -10 -5 -2 -5
17 0 19 2 27 5 18 2 -10 2 -26 0 -35z m-697 -154 c0 -16 7 -46 15 -66 8 -19
15 -37 15 -39 0 -11 -29 -1 -54 19 l-29 24 18 51 c20 55 35 59 35 11z m427 25
c-3 -3 -12 -4 -19 -1 -8 3 -5 6 6 6 11 1 17 -2 13 -5z m29 -114 c23 -25 55
-61 71 -80 92 -108 128 -188 51 -113 -60 59 -90 64 -128 23 -34 -37 -35 -42
-14 -130 15 -67 71 -172 132 -247 33 -42 41 -92 17 -100 -5 -2 -37 22 -70 52
-67 61 -101 69 -136 34 -19 -19 -21 -29 -16 -90 3 -38 15 -89 27 -115 11 -26
18 -49 15 -52 -3 -3 -37 -14 -75 -23 -39 -10 -85 -25 -103 -33 -17 -8 -59 -26
-91 -41 -89 -40 -256 -219 -321 -344 -35 -69 -66 -177 -72 -254 -3 -43 -9 -74
-13 -70 -4 4 -15 51 -25 103 -19 105 -17 266 4 335 14 45 38 148 51 215 32
171 147 357 342 558 34 34 65 62 69 62 15 0 72 54 108 104 51 69 91 154 91
190 0 17 3 48 6 69 7 38 7 38 22 15 9 -13 35 -43 58 -68z m261 48 c-3 -8 -6
-5 -6 6 -1 11 2 17 5 13 3 -3 4 -12 1 -19z m-590 -190 c-2 -13 -4 -3 -4 22 0
25 2 35 4 23 2 -13 2 -33 0 -45z m-215 -76 c15 -31 33 -65 40 -74 19 -26 6
-29 -50 -13 -78 24 -85 35 -59 95 12 27 27 49 32 49 6 0 22 -25 37 -57z m671
-89 c24 -15 62 -28 90 -31 26 -3 49 -7 51 -11 5 -7 -29 -179 -36 -187 -6 -6
-64 65 -111 137 -34 51 -58 119 -43 119 3 0 25 -12 49 -27z m-815 -188 c17
-36 36 -65 42 -65 5 0 10 -6 10 -14 0 -11 -7 -11 -42 1 -42 14 -108 50 -108
59 0 9 53 84 59 84 4 0 21 -29 39 -65z m-182 -202 c9 -37 40 -97 60 -117 9
-10 14 -19 11 -22 -8 -8 -114 46 -133 67 -16 18 -15 21 10 59 31 47 43 50 52
13z m908 2 c18 -14 37 -25 42 -25 5 0 20 -9 34 -20 14 -11 35 -20 48 -20 12 0
22 -5 22 -10 0 -20 -40 -154 -49 -163 -19 -19 -122 154 -137 231 -8 39 -2 39
40 7z m-1085 -290 c19 -30 58 -78 85 -106 55 -57 53 -57 -54 -17 -62 24 -140
69 -140 81 0 11 62 97 69 97 3 0 22 -25 40 -55z m1081 -160 c16 -4 30 -12 30
-18 0 -24 -56 -167 -65 -167 -21 0 -81 155 -85 220 -3 41 -2 41 45 6 24 -19
58 -37 75 -41z m-160 28 c0 -20 -3 -24 -11 -16 -7 7 -9 19 -6 27 10 24 17 19
17 -11z m-321 -47 c9 -7 30 -18 46 -23 32 -11 34 -24 14 -91 -13 -41 -27 -32
-64 41 -35 71 -33 106 4 73z m-849 -115 c15 -45 33 -88 40 -96 27 -33 -2 -25
-62 17 -55 38 -108 96 -108 119 0 5 18 13 40 19 21 6 42 15 46 21 9 15 13 8
44 -80z m-1976 -121 c25 -10 46 -23 47 -27 0 -4 1 -42 3 -84 2 -42 9 -85 15
-97 13 -24 14 -42 3 -42 -18 0 -132 226 -132 263 0 11 15 8 64 -13z m1651 -55
c6 -41 22 -90 38 -119 32 -57 31 -56 12 -56 -8 0 -15 4 -15 10 0 5 -38 51 -85
102 -47 50 -82 95 -78 99 12 12 86 37 103 35 10 -1 18 -22 25 -71z m1064 27
c6 -15 27 -40 46 -55 32 -25 34 -29 23 -55 -13 -30 -37 -62 -47 -62 -8 0 -37
100 -46 158 -8 48 6 57 24 14z m-1402 -90 c3 -54 34 -143 61 -175 8 -9 12 -20
8 -25 -8 -7 -163 150 -194 196 -19 29 -9 40 49 51 69 14 72 12 76 -47z m1716
29 c10 -17 38 -40 67 -53 27 -13 49 -26 50 -30 0 -3 -16 -30 -35 -60 -19 -29
-38 -61 -41 -70 -9 -30 -19 -21 -34 30 -7 26 -19 67 -26 92 -15 50 -18 120 -6
120 4 0 15 -13 25 -29z m-76 -13 c-3 -7 -5 -2 -5 12 0 14 2 19 5 13 2 -7 2
-19 0 -25z m-2621 -98 c1 -36 4 -81 8 -100 l7 -35 -21 25 c-27 32 -78 136 -86
177 l-6 32 48 -18 49 -17 1 -64z m630 33 c9 -65 32 -133 55 -162 22 -28 24
-41 7 -40 -13 0 -151 180 -163 210 -4 11 5 18 32 26 60 17 61 16 69 -34z
m-308 -28 c6 -66 24 -134 38 -145 17 -15 18 -30 2 -30 -16 0 -161 197 -154
208 2 4 28 5 58 2 50 -5 53 -7 56 -35z m1942 -187 c15 -13 35 -28 45 -33 17
-10 16 -13 -3 -50 -26 -49 -50 -80 -56 -74 -9 9 -36 123 -36 151 0 34 13 35
50 6z m167 -20 c-3 -8 -6 -5 -6 6 -1 11 2 17 5 13 3 -3 4 -12 1 -19z m97 -45
c22 -21 52 -46 66 -55 l25 -16 -56 -57 -56 -56 -16 51 c-16 50 -24 170 -11
170 4 0 25 -17 48 -37z m-97 -55 c-3 -8 -6 -5 -6 6 -1 11 2 17 5 13 3 -3 4
-12 1 -19z m-389 -189 c36 -43 37 -68 6 -116 -22 -34 -31 -28 -43 27 -13 59
-14 130 -3 130 4 0 22 -18 40 -41z m297 -9 c16 -16 37 -30 47 -30 10 0 18 -4
18 -9 0 -8 -66 -71 -74 -71 -7 0 -36 98 -36 119 0 29 11 26 45 -9z m-193 -87
c15 -32 33 -66 40 -76 11 -15 10 -20 -12 -37 -28 -21 -78 -36 -88 -25 -17 17
7 195 26 195 4 0 19 -26 34 -57z"/>
<path d="M8700 5152 c-92 -59 -197 -172 -245 -263 -56 -107 -40 -143 17 -39
62 113 157 219 243 269 46 28 85 61 85 73 0 17 -28 6 -100 -40z"/>
</g>
</svg>
