<?xml version="1.0" standalone="no"?>
<!DOCTYPE svg PUBLIC "-//W3C//DTD SVG 20010904//EN"
 "http://www.w3.org/TR/2001/REC-SVG-20010904/DTD/svg10.dtd">
<svg version="1.0" xmlns="http://www.w3.org/2000/svg"
 width="3000.000000pt" height="3000.000000pt" viewBox="0 0 3000.000000 3000.000000"
 preserveAspectRatio="xMidYMid meet">

<g transform="translate(0.000000,3000.000000) scale(0.100000,-0.100000)"
fill="#000000" stroke="none">
<path d="M2340 18560 l0 -8470 5620 0 5620 0 0 8470 0 8470 -5620 0 -5620 0 0
-8470z m9083 5226 c122 -326 121 -325 206 -337 32 -5 17 -6 -49 -5 -86 1 -95
3 -92 19 2 10 -16 69 -40 132 l-43 115 -107 0 c-65 0 -108 4 -108 10 0 6 42
10 105 10 58 0 105 2 105 5 0 3 -5 13 -10 23 -6 9 -32 79 -59 156 l-48 138
-60 -174 c-34 -95 -78 -225 -100 -287 l-38 -112 24 -20 23 -19 -83 1 c-70 1
-79 2 -51 10 19 6 40 22 51 40 10 17 62 150 116 297 54 147 107 292 119 322
l21 55 3 -40 c2 -22 53 -174 115 -339z m-8018 330 l25 -16 0 -310 0 -309 38
-10 c20 -6 85 -11 145 -11 64 0 107 -4 107 -10 0 -6 -72 -10 -197 -10 -166 0
-194 2 -173 13 19 10 27 23 32 57 9 59 8 558 -1 590 -4 16 -15 26 -31 28 -14
2 -29 7 -34 12 -14 14 63 -7 89 -24z m1486 -2 c18 -16 19 -34 19 -325 l0 -307
31 -11 c18 -6 76 -11 130 -11 59 0 99 -4 99 -10 0 -6 -67 -10 -182 -9 -121 0
-175 3 -160 9 12 5 27 21 32 35 14 36 13 600 0 626 -6 10 -19 19 -30 19 -10 0
-21 4 -24 9 -10 15 64 -6 85 -25z m794 18 c-3 -3 -11 0 -18 7 -9 10 -8 11 6 5
10 -3 15 -9 12 -12z m995 -22 c11 -28 91 -120 275 -315 231 -245 306 -338 288
-355 -11 -11 -538 548 -555 588 -4 10 -7 -110 -7 -264 l-1 -282 23 -15 c13 -8
32 -17 42 -20 11 -2 -23 -5 -75 -5 -69 0 -87 2 -66 8 16 5 33 15 37 22 5 7 9
163 9 346 0 182 4 332 8 332 4 0 14 -18 22 -40z m535 9 c11 -11 15 -80 19
-304 4 -244 3 -287 -8 -272 -10 13 -16 87 -21 290 -4 157 -11 277 -17 285 -6
6 -21 12 -34 12 -12 0 -25 4 -28 9 -9 13 75 -5 89 -20z m2293 -344 c119 -314
119 -314 201 -326 32 -5 17 -6 -49 -5 -87 1 -95 3 -92 20 2 10 -16 69 -39 132
l-42 114 -103 0 c-58 0 -106 4 -109 10 -4 6 32 10 100 10 98 0 107 1 100 18
-34 82 -95 268 -95 289 0 17 -4 23 -9 18 -5 -6 -53 -138 -107 -294 l-98 -284
23 -18 c23 -19 23 -19 -60 -18 -46 1 -72 4 -58 6 15 2 36 14 48 27 13 14 71
156 137 337 63 173 117 321 121 329 4 9 9 -2 14 -30 4 -25 57 -175 117 -335z
m1427 345 c16 -17 11 -36 -70 -297 -48 -153 -91 -285 -96 -293 -26 -46 -1 62
62 266 38 126 73 253 76 282 5 48 4 52 -15 52 -11 0 -23 4 -26 8 -10 16 53 0
69 -18z m-6999 -1 l34 -21 0 -309 0 -309 33 -20 32 -20 -90 1 c-49 1 -81 3
-70 6 44 10 45 21 45 349 0 312 0 313 -22 328 -34 24 -1 19 38 -5z m410 -2
l26 -23 -1 -277 c-1 -152 1 -292 4 -311 5 -25 15 -38 38 -50 31 -15 30 -16
-58 -14 -49 0 -80 3 -67 5 13 3 27 16 33 29 5 14 9 160 9 325 0 286 -1 300
-20 319 -29 29 1 26 36 -3z m1405 2 l29 -20 0 -310 0 -309 33 -20 32 -20 -90
1 c-49 1 -80 4 -67 6 43 8 46 31 46 349 1 283 0 303 -18 323 -25 27 -4 28 35
0z m535 0 l34 -21 0 -309 0 -309 33 -20 32 -20 -90 1 c-49 1 -81 3 -70 6 44
10 45 21 45 349 0 312 0 313 -22 328 -34 24 -1 19 38 -5z m1011 15 c-3 -3 -12
-4 -19 -1 -8 3 -5 6 6 6 11 1 17 -2 13 -5z m271 -14 l32 -20 0 -309 0 -309 38
-14 c23 -8 81 -13 152 -13 103 1 121 3 173 27 32 15 70 37 84 48 33 26 44 17
12 -10 -43 -36 -115 -69 -175 -79 -84 -13 -392 -2 -362 13 34 17 39 74 36 383
-3 258 -4 275 -22 289 -30 21 -6 17 32 -6z m1078 -2 c8 -8 16 -30 18 -49 2
-19 1 -24 -1 -13 -8 39 -40 58 -106 62 -54 3 -67 0 -100 -22 -44 -30 -48 -31
-41 -12 3 8 24 24 47 36 34 17 54 20 106 17 36 -3 69 -11 77 -19z m1462 3 l38
-19 82 -289 c55 -192 82 -305 82 -338 -1 -48 -1 -49 -14 -25 -7 14 -53 158
-101 320 -92 310 -104 343 -132 359 -32 19 6 12 45 -8z m452 -34 c0 -42 20
-109 90 -307 63 -176 90 -268 90 -299 0 -26 -4 -41 -9 -35 -4 5 -50 128 -101
274 -51 146 -96 273 -100 284 -4 12 -34 -57 -95 -220 -87 -236 -105 -277 -105
-238 0 27 211 594 222 594 4 0 8 -24 8 -53z m467 47 c-3 -3 -12 -4 -19 -1 -8
3 -5 6 6 6 11 1 17 -2 13 -5z m625 -15 c39 -19 52 -37 145 -198 l102 -177 3
-134 3 -135 35 -17 35 -18 -90 0 c-79 0 -87 2 -65 13 31 16 37 44 39 174 1 97
-1 105 -32 165 -55 105 -160 269 -198 310 -41 43 -37 47 23 17z m451 3 c16
-18 14 -24 -34 -103 -28 -46 -73 -126 -101 -176 -27 -51 -52 -93 -54 -93 -17
0 8 56 82 185 63 111 84 157 81 178 -4 32 3 34 26 9z m-7473 -8 c5 -5 12 -25
15 -44 5 -32 5 -33 -5 -10 -16 37 -26 40 -132 40 -89 0 -127 10 -96 24 20 9
208 0 218 -10z m492 6 c21 0 29 -7 38 -36 7 -19 9 -38 6 -41 -3 -4 -6 1 -6 10
0 31 -29 47 -88 47 -31 0 -74 3 -95 7 -63 10 -21 25 53 19 36 -3 77 -6 92 -6z
m915 -15 c7 -11 12 -30 12 -44 -1 -21 -2 -22 -6 -6 -10 41 -22 45 -129 45 -57
0 -104 4 -104 8 0 20 21 24 114 20 81 -4 102 -8 113 -23z m1853 9 c116 -27
202 -98 234 -192 16 -45 21 -176 10 -220 -13 -48 -29 -13 -35 75 -7 113 -38
182 -110 247 -67 60 -121 78 -249 82 -58 2 -107 4 -110 4 -3 0 2 5 10 10 23
15 177 11 250 -6z m500 -98 c0 -58 46 -132 119 -190 87 -69 127 -117 140 -163
24 -87 0 -114 -30 -34 -18 49 -45 80 -147 169 -40 35 -81 81 -92 102 -19 38
-26 112 -14 144 10 25 24 8 24 -28z m-3792 -212 c13 -9 22 -25 22 -42 l0 -27
-13 25 c-15 30 -42 38 -129 39 -38 1 -68 5 -68 11 0 17 162 12 188 -6z m530 0
c12 -8 22 -22 22 -31 0 -14 -2 -14 -19 1 -14 13 -43 19 -100 23 -45 3 -81 10
-81 14 0 16 154 10 178 -7z m875 4 c9 -7 18 -26 21 -43 2 -16 1 -22 -1 -12 -7
28 -64 47 -143 47 -40 0 -70 4 -70 10 0 15 172 13 193 -2z m2658 -287 c-33
-61 -119 -96 -218 -88 -78 6 -113 27 -113 67 0 36 15 39 24 5 8 -33 62 -55
136 -55 45 0 65 5 96 26 21 15 45 35 52 45 18 25 36 25 23 0z"/>
<path d="M17620 18560 l0 -8470 5620 0 5620 0 0 8470 0 8470 -5620 0 -5620 0
0 -8470z m5745 2321 c3 -5 31 -12 63 -16 31 -3 66 -11 77 -16 11 -5 40 -11 65
-13 71 -7 111 -18 117 -32 3 -8 14 -14 25 -14 11 0 34 -6 51 -14 18 -8 51 -22
75 -32 23 -10 42 -21 42 -26 0 -4 8 -8 19 -8 10 0 24 -7 31 -15 7 -8 19 -15
27 -15 8 0 29 -11 46 -24 18 -13 48 -32 67 -42 19 -11 49 -29 67 -41 17 -13
35 -23 40 -23 4 -1 24 -14 43 -30 19 -17 40 -30 47 -30 17 0 623 -605 624
-622 0 -7 20 -40 45 -73 24 -33 59 -83 78 -110 19 -28 41 -57 50 -64 9 -7 16
-18 16 -23 0 -4 25 -45 55 -89 30 -44 55 -83 55 -87 0 -4 11 -19 25 -34 14
-15 25 -34 25 -41 0 -8 7 -20 15 -27 8 -7 15 -17 15 -23 0 -5 11 -25 25 -43
14 -18 25 -39 25 -48 0 -8 5 -18 11 -21 5 -4 14 -17 20 -28 5 -12 13 -29 18
-37 5 -8 12 -22 15 -30 4 -8 17 -33 31 -55 28 -45 45 -81 45 -97 0 -6 6 -19
13 -27 8 -9 20 -38 27 -66 7 -27 18 -57 24 -65 7 -8 20 -40 31 -70 10 -30 26
-65 36 -78 9 -12 20 -45 24 -72 4 -28 11 -53 16 -56 15 -9 35 -65 43 -117 4
-26 10 -47 14 -47 8 0 26 -56 38 -115 3 -16 8 -37 12 -45 12 -32 33 -127 38
-174 3 -27 12 -62 20 -77 7 -15 14 -36 14 -47 0 -10 4 -22 9 -27 5 -6 11 -57
13 -115 3 -91 6 -109 26 -134 22 -29 22 -29 22 -435 0 -408 -3 -453 -39 -571
-6 -19 -11 -54 -11 -78 0 -27 -7 -54 -19 -70 -27 -39 -34 -70 -32 -134 2 -47
-3 -64 -25 -97 -15 -23 -29 -61 -32 -87 -3 -26 -15 -66 -28 -88 -13 -23 -24
-55 -24 -72 0 -41 -237 -514 -278 -558 -17 -17 -40 -51 -50 -76 -11 -25 -34
-58 -51 -75 -17 -16 -42 -53 -55 -82 -18 -39 -62 -90 -173 -201 -148 -148
-197 -190 -263 -226 -19 -11 -56 -37 -81 -58 -26 -21 -52 -38 -59 -38 -7 0
-35 -18 -64 -40 -28 -22 -56 -43 -61 -47 -10 -8 -66 -35 -95 -47 -8 -4 -44
-22 -79 -41 -35 -19 -69 -35 -75 -35 -7 0 -17 -5 -24 -12 -9 -9 -150 -63 -187
-72 -5 -1 -44 -12 -85 -25 -41 -13 -111 -34 -155 -47 -44 -13 -100 -24 -125
-24 -25 -1 -63 -7 -85 -15 -22 -8 -67 -15 -100 -15 -33 -1 -78 -7 -100 -15
-56 -21 -374 -21 -430 0 -22 8 -69 14 -105 15 -37 0 -71 5 -76 10 -6 6 -35 13
-65 16 -30 4 -87 17 -127 30 -40 13 -80 24 -90 24 -16 0 -86 22 -127 39 -11 5
-40 15 -65 22 -25 7 -52 19 -61 26 -8 7 -23 13 -31 13 -9 0 -21 7 -28 15 -7 8
-18 15 -24 15 -14 0 -126 56 -140 70 -6 6 -18 10 -27 10 -9 0 -22 7 -29 15 -7
8 -21 15 -30 15 -10 0 -20 3 -22 8 -4 10 -125 92 -136 92 -6 0 -44 32 -85 70
-41 39 -81 70 -88 70 -19 0 -409 395 -409 414 0 15 -25 62 -40 76 -15 14 -71
90 -66 90 3 0 -14 30 -39 66 -25 36 -45 70 -45 76 0 6 -17 36 -38 67 -47 70
-122 226 -122 253 0 6 -6 19 -13 27 -8 9 -20 39 -27 66 -7 28 -18 57 -25 65
-6 8 -17 33 -23 55 -44 152 -55 197 -63 247 -5 32 -18 74 -29 95 -12 24 -20
57 -20 88 0 27 -6 79 -14 115 -8 36 -21 90 -27 120 -9 38 -14 203 -16 523 -3
399 -1 475 12 513 8 25 15 62 15 82 0 21 5 43 10 48 6 6 13 42 17 80 3 38 15
87 26 109 14 28 21 68 24 135 3 52 9 99 14 105 5 5 9 17 9 27 0 26 13 22 38
-12 13 -16 31 -30 42 -30 10 0 21 -4 24 -9 3 -4 46 -10 95 -13 86 -5 115 -14
225 -71 11 -5 71 -13 134 -18 102 -9 119 -13 156 -39 23 -15 60 -32 82 -36 21
-3 45 -12 53 -18 10 -7 98 -11 280 -11 228 1 272 3 309 18 23 9 58 17 77 17
18 0 37 5 40 11 4 6 13 8 21 5 8 -3 22 -2 32 4 43 23 83 28 149 19 37 -4 100
-8 140 -9 40 0 75 -5 78 -11 5 -7 46 -10 114 -8 60 1 118 -3 134 -10 16 -6 59
-11 96 -11 37 0 71 -4 76 -8 6 -5 30 -15 55 -22 25 -8 51 -18 59 -24 8 -7 92
-13 203 -16 122 -3 191 -9 196 -16 4 -6 25 -14 47 -18 22 -4 47 -14 55 -21 20
-17 60 -29 60 -17 0 13 -70 86 -107 111 -30 20 -46 22 -191 24 -118 1 -163 6
-175 16 -10 7 -17 10 -17 6 0 -4 -6 -3 -12 2 -7 6 -26 13 -43 17 -37 9 -110
43 -147 68 -14 10 -42 18 -61 18 -20 0 -39 5 -42 11 -13 21 -61 31 -137 29
-45 -1 -79 3 -83 9 -3 6 -15 11 -26 11 -11 0 -50 16 -86 35 -60 32 -74 35
-146 35 -75 0 -116 -8 -177 -33 -14 -6 -29 -11 -35 -12 -21 -4 -75 -30 -75
-36 0 -4 -26 -13 -57 -20 -32 -7 -64 -17 -72 -23 -19 -15 -489 -12 -504 3 -6
6 -21 11 -33 11 -13 0 -35 5 -51 11 -15 6 -29 9 -29 7 -1 -2 -10 4 -20 12 -48
38 -72 45 -184 51 -103 6 -121 10 -174 37 -32 18 -86 37 -120 43 -33 6 -65 16
-70 20 -6 5 -18 9 -28 9 -10 0 -35 16 -57 35 -21 19 -43 35 -49 35 -5 0 -1 17
9 37 10 21 19 54 19 74 0 20 8 47 18 60 23 29 42 83 42 117 0 13 8 39 19 56
10 17 22 42 26 56 4 14 16 37 26 51 16 23 24 45 46 136 3 12 11 28 19 34 8 6
14 20 14 30 0 11 4 19 9 19 5 0 13 12 19 28 5 15 26 47 46 70 20 24 36 50 36
57 0 7 11 28 23 47 13 19 27 46 31 61 3 15 22 52 41 82 19 30 35 58 35 64 0 5
18 29 40 53 22 23 40 47 40 52 0 4 14 25 30 46 17 21 30 43 30 48 0 6 36 49
80 95 44 47 80 89 80 94 0 5 11 20 25 33 14 13 25 29 25 37 0 21 217 239 279
280 71 47 68 45 161 130 45 40 95 76 117 84 21 6 58 29 83 49 25 20 59 42 75
49 17 7 37 17 45 22 8 5 22 12 30 15 8 3 22 9 30 14 20 12 125 63 172 84 20 9
45 16 55 16 10 0 23 4 29 9 15 13 110 41 143 41 16 0 32 4 35 9 4 5 29 12 56
16 27 4 52 11 56 16 7 12 351 12 359 0z"/>
</g>
</svg>
